/* XPM */
static char *_d2e367186ab4d97b1d6a74be6431630jfa0l2Gb1eZSLOEH[] = {
/* columns rows colors chars-per-pixel */
"64 64 248 2 ",
"   c #030302",
".  c #0A0504",
"X  c #030B01",
"o  c #0B0B06",
"O  c #0B0B0C",
"+  c #06080B",
"@  c #120A07",
"#  c #130D0B",
"$  c #170A0A",
"%  c #011202",
"&  c #0B130B",
"*  c #15110D",
"=  c #1B140E",
"-  c #0C0C13",
";  c #0D0C17",
":  c #140F12",
">  c #0D1214",
",  c #0F1319",
"<  c #141313",
"1  c #1B1414",
"2  c #1C1A16",
"3  c #13141A",
"4  c #1B1A1B",
"5  c #161919",
"6  c #231C1A",
"7  c #261B19",
"8  c #2F1911",
"9  c #112117",
"0  c #24211E",
"q  c #2A211A",
"w  c #31261E",
"e  c #1D1E21",
"r  c #152827",
"t  c #252322",
"y  c #2B2423",
"u  c #2D2925",
"i  c #29292A",
"p  c #322522",
"a  c #332A25",
"s  c #352D2C",
"d  c #3A2D2B",
"f  c #382928",
"g  c #3C322D",
"h  c #35312B",
"j  c #3C3432",
"k  c #383636",
"l  c #292F32",
"z  c #2F1C25",
"x  c #443A36",
"c  c #453C3A",
"v  c #4B3D3A",
"b  c #463734",
"n  c #513D3B",
"m  c #432F2B",
"M  c #4D423D",
"N  c #45413D",
"B  c #54433D",
"V  c #5E473D",
"C  c #305052",
"Z  c #365C60",
"A  c #1A797B",
"S  c #326B6E",
"D  c #1F5344",
"F  c #4C4443",
"G  c #534542",
"H  c #5B4D4A",
"J  c #594945",
"K  c #5C514E",
"L  c #5B5555",
"P  c #504D51",
"I  c #624C48",
"U  c #64524C",
"Y  c #6A544C",
"T  c #6B5652",
"R  c #6C5A55",
"E  c #675A57",
"W  c #725E5A",
"Q  c #735C56",
"!  c #73615C",
"~  c #7A635C",
"^  c #726057",
"/  c #6C605B",
"(  c #4C7275",
")  c #7D6A64",
"_  c #796866",
"`  c #6C6E71",
"'  c #6E5D62",
"]  c #2D403B",
"[  c #846B5D",
"{  c #836B64",
"}  c #866D68",
"|  c #84736D",
" . c #8B746C",
".. c #897167",
"X. c #93786C",
"o. c #8D7572",
"O. c #8D7973",
"+. c #8B777B",
"@. c #937B73",
"#. c #977C76",
"$. c #876F74",
"%. c #AD7F70",
"&. c #73817B",
"*. c #9C837C",
"=. c #988279",
"-. c #968061",
";. c #A3857A",
":. c #A8887A",
">. c #B38C7E",
",. c #2E7C81",
"<. c #727B84",
"1. c #477B84",
"2. c #1C8A8B",
"3. c #198585",
"4. c #228C8D",
"5. c #278689",
"6. c #37878B",
"7. c #248E91",
"8. c #2C8F92",
"9. c #269193",
"0. c #2B9396",
"q. c #2E9699",
"w. c #33969A",
"e. c #34999D",
"r. c #3A969C",
"t. c #348B92",
"y. c #3C9DA2",
"u. c #369DA0",
"i. c #3CA3A6",
"p. c #49858B",
"a. c #49949C",
"s. c #518D95",
"d. c #439CA3",
"f. c #4C9CA6",
"g. c #589BA6",
"h. c #639EAA",
"j. c #789DA5",
"k. c #44A3AA",
"l. c #4BA5AD",
"z. c #45A7AC",
"x. c #55A2AD",
"c. c #4EAAB1",
"v. c #4BAAB1",
"b. c #54ABB5",
"n. c #5AAAB5",
"m. c #5BAEB9",
"M. c #58A7B2",
"N. c #5CB2BC",
"B. c #56B1B9",
"V. c #68A2AD",
"C. c #63ADBA",
"Z. c #66A9B6",
"A. c #62B3BE",
"S. c #69B1BE",
"D. c #73AEBA",
"F. c #7D878D",
"G. c #5EB6C0",
"H. c #65B6C2",
"J. c #6BB6C3",
"K. c #6BB9C6",
"L. c #6DBCC9",
"P. c #66B9C4",
"I. c #72B8C7",
"U. c #73BDCC",
"Y. c #7ABECE",
"T. c #73B6C5",
"R. c #7BBFD0",
"E. c #75C0CE",
"W. c #79C0CF",
"Q. c #76C1D0",
"!. c #7BC3D2",
"~. c #7FC8D8",
"^. c #9E8A84",
"/. c #988682",
"(. c #97979A",
"). c #928A8C",
"_. c #A48B84",
"`. c #AA8D83",
"'. c #A68D89",
"]. c #B18E87",
"[. c #AC948C",
"{. c #A99288",
"}. c #B39284",
"|. c #B3958C",
" X c #B9998B",
".X c #AC9592",
"XX c #A9999A",
"oX c #B49C94",
"OX c #BB9C94",
"+X c #BC9C9C",
"@X c #B59896",
"#X c #BDA29B",
"$X c #BCA297",
"%X c #AEA08D",
"&X c #A69DA3",
"*X c #95B1B6",
"=X c #BCA6A3",
"-X c #ABAEB2",
";X c #9A9DA1",
":X c #C29D93",
">X c #C79B8A",
",X c #C4A295",
"<X c #C2A59D",
"1X c #CBAA9D",
"2X c #CAA59A",
"3X c #D3A99D",
"4X c #C4ABA4",
"5X c #CBACA4",
"6X c #C8AAA8",
"7X c #D3ADA3",
"8X c #CBB2AA",
"9X c #D3B4AB",
"0X c #DBBAAC",
"qX c #D6B5A9",
"wX c #CAB6B4",
"eX c #DBBCB4",
"rX c #D5BBB4",
"tX c #CCABB1",
"yX c #E4B8AC",
"uX c #E2BDB3",
"iX c #C29EA0",
"pX c #DDC2BA",
"aX c #DBC1B6",
"sX c #E3C2B5",
"dX c #E3C5BB",
"fX c #EACBBE",
"gX c #E8C6BB",
"hX c #EDC5B6",
"jX c #84BCC8",
"kX c #B0BDC4",
"lX c #81C6D6",
"zX c #84C7D8",
"xX c #85C9DA",
"cX c #8ACCDD",
"vX c #85C8D6",
"bX c #9CC5CC",
"nX c #94D3E6",
"mX c #8DCEE0",
"MX c #D5CBCC",
"NX c #EBCCC3",
"BX c #E8CBC3",
"VX c #EED1C4",
"CX c #EED2C9",
"ZX c #E7D0C5",
"AX c #F3D2C6",
"SX c #F1D4CB",
"DX c #F1CDC2",
"FX c #EDE8EB",
/* pixels */
"k.u.e.e.0.w.u.w.e.u.w.9.w.u.k.l.b.N.m.b.c.v.i 2 0 s s s s j c x c c s y 0 t t 0 i e 4 9.0.w.e.9.7.9.4.2.7.9.9.9.0.0.0.e.u.c.m.m.",
"m.b.A.L.P.k.i.k.k.y.e.u.y.l.N.E.cXzXQ.U.U.` u h c M M F F v M x x j a 6 6 t u u 0 0 < p.d.k.l.b.b.k.u.e.e.w.e.u.e.w.0.0.0.w.y.l.",
"t.t.t.w.d.M.J.L.K.P.A.H.l.0.y.l.b.b.N.N.V.N M U E W R W W T U G M c s y 7 6 y u u 2 2 O ( U.Q.E.Q.!.xX!.E.E.Q.Q.L.m.l.l.l.c.k.b.",
"0.0.0.w.d.r.y.w.0.k.c.J.U.N.z.i.l.l.N.J.K E ) O.=.=.@.#.#.| ) ^ T U G v g a y u u 2 * + O Z b.b.b.b.c.m.H.H.P.U.lXcXnXnXmXP.b.l.",
"H.H.A.N.b.c.k.e.9.9.9.r.f.M.A.b.v.b.b.! | =.[.{.$XOX X X}.;.=.X.} ~ R Y J v b g u j t 1 O O p.Q.xXcXxX!.L.L.H.N.m.b.N.K.P.c.0.0.",
"H.H.L.U.U.U.U.U.U.b.y.0.9.r.x.l.r.r.O.^.[.{.,X1X1X5X2X,XOX}.>.:.#. .{ ~ Q U B c x j s t < o < a.x.S.I.I.I.E.nXnXmXnXnXxXQ.U.A.z.",
"K.A.A.m.P.U.U.U.U.Q.E.H.b.k.i.k.e.'._.OX<XqX7XqX7XqX1X2X,X:X X>.`.;.X...{ Q I B b g N k < < X + J.Z.g.f.f.f.l.H.L.Q.cXxXQ.A.m.K.",
"U.Q.lXQ.A.N.H.H.P.H.L.Q.!.Q.L.H.*X`.OX1X7X7XqX0XqX0X7X3X2X,X>X>.`.:.#.X. .{ Q U G v F s 2 : O + k cXxXlXY.J.g.a.d.z.A.!.cX!.Q.U.",
"N.P.U.U.H.H.I.P.P.J.K.P.U.U.U.Y.].+X1X7XqX0XyX0XyXyXqX7X3X2X>X X}.:.;.X.X. .} ~ T v x s 6 o O O + D.zXxXzXxXlXI.S.x.a.g.Z.Z.M.!.",
"K.P.N.N.P.A.m.H.Q.Y.K.L.Q.U.E.XX:X1XqXqX0XuXsXsXuXuXuXqX7X2X,X>X}.>.;.#.#.@. .{ ! G F x y : + + -   N.U.!.zXQ.xXxXlXI.n.x.M.J.!.",
"m.N.A.P.m.l.z.e.y.l.c.b.b.A.-X=X5X7X0XuXsXsXgXgXgXgXgXuXqX3X,X:X X].:.:.;.#.O. .| E H F h 1 O +   O C l.l.m.I.!.U.E.Q.U.E.Q.U.H.",
"J.P.P.H.U.A.b.b.l.u.q.9.0.e..X#XqXqX0XsXgXgXgXNXNXNXBXuX0XqX2X,X X}.:.:.:.#.X.O.O.W U c s 4 O + > +   c.y.e.y.l.N.P.U.L.Q.lXK.K.",
"J.J.N.b.m.b.N.z.c.v.i.i.q.&X+X0X0X0XeXgXfXfXNXVXCXCXNXgXuXqX1X,X X}.>.:.;.#.X.o.O._ K s 6 3 > +   O & C P.N.b.c.b.m.N.N.N.m.N.b.",
"m.N.b.l.b.b.L.P.B.b.z.k.k..X1XqX0XeXdXNXVXVXVXSXSXSXCXNXdX0X3X,X X}.>.:.;.#.@.@.O._ H y < < < O O O   O Q.E.Y.U.J.H.H.b.y.w.w.y.",
"k.k.l.l.l.b.l.b.H.E.Q.P.-XOX3XyXuXsXgXfXVXVXVXSXSXSXCXNXdX0X1X,X X}.}.:.;.#.@.O.O._ K t < < < > &   + O C xXxXxXxX!.lX!.A.y.2.7.",
"U.!.!.E.H.H.A.c.k.v.N.L.&X6X0XyXsXgXfXNXVXNXVXSXSXSXSXNXsXqX2X:X X}.}.:.;.#.@.O.| _ H t < < > > & & & O > zXzXcXcXlXU.lXnXcXH.e.",
"!.lXU.L.U.L.N.H.E.P.N.N.XX4XeXgXdXBXNXNXZXCXCXCXSXSXVXNXuXqX2X X|.|.].:.;.X.X. .| _ F y : O > > *   O - O S k.b.U.Q.U.H.U.!.mXlX",
"W.Q.Q.L.E.Y.U.K.L.P.P.K.+XrXsXuXNXNXVXCXCXCXCXCXSXSXVXfXeXqX2X X|.|.`.:.:.X...{ ) E N t < < 5 5 * o O   + X 7.3.2.7.w.b.N.A.lXxX",
"U.Q.Q.lXlX!.!.Q.E.L.P.-X4XrXgXfXfXNXNXVXVXSXCXVXCXVXNXsXqX1X,XOXoX|.`.:.;.X.[ ~ W L k 4 < 3 4 4 * . O + O   C.P.A.k.9.2.w.k.A.U.",
"K.!.U.P.P.!.Y.U.Q.Q.Q.&X4XpXuXDXDXAXAXAXAXSXSXSXSXVXfXsXqX5X2X,XoX[.`.:.#...~ Q T J h 5 - 3 4 4 * O + + + % &.!.lXY.W.J.S.J.I.I.",
"K.U.U.E.m.H.U.Q.U.L.jX=XeXaXNXgXAXAXAXAXAXAXSXSXSXNXfXdX0XqX1X,X[._.*.=.X.[ ~ T H M u 3 < 4 t t 2 3 + +     % Q.U.J.I.U.Y.R.!.!.",
"m.H.!.I.L.U.W.E.!.Q.-XtX4XaXeXdXfXDXAXAXAXAXSXAXAXCXVXfXdXaX9X$X[.*.=.X.} ~ Q Y H x 0 < 3 e i k t < - + + X % g.C.S.C.I.lXzX!.!.",
"k.k.Q.P.m.H.Q.lX!.!.(.@X=X=X4XrXsXgXNXfXgXgXdXdXBXNXZXdXpXdX9X+X^.@. . .} [ ~ E K j 4 < 3 4 t i t 3 5 - + X % V.zXxXcXU.U.Y.b.u.",
"P.!.Q.!.U.L.L.L.P.P.<.{ ) ) *..X9X0XeX0XqX5X<X#X8XwXwX4X4X8X=X{.O.) [ ....} { ! K j 4 < 3 < < < 3 t 4 5 < X % jXcXlX!.!.xXQ.P.K.",
"a.d.r.d.l.l.b.N.G.L.<.I J n G W `.9X0X8X|. ...~ { o.#.@.O.#.O.| ! R ~ | @.O...| / k 1 < : + O < < t i 4 O X % jXlX!.cXmXmXcXcXxX",
"l.b.l.d.d.d.d.r.r.d.<.I I B n n ~ 4XaX5X_.{ ~ T T I T W Y J J J B Y { @.=.=.@.| / j 2 < < < 3 4 0 s 4 + +   % C.I.U.I.S.J.xXcXcX",
"N.H.U.L.A.P.E.L.N.b.F.P n T n d V #XZXBX=X^.*.O.{ } ! W U n v v b U ..*.;._.=.| E x t 1 1 4 4 y j y 1 O . X D r.0.l.L.I.f.U.cXlX",
"A.A.A.L.A.P.U.N.H.Q.*X` Y =.) _ { 4XCXZX=X*.#.o.o.'.T m b B U _ Q ~ @.'.[.'.=.| E c s 6 < 1 4 u s 2 # : X X p.l.2.4.K.U.xXH.m.I.",
"J.K.Q.Q.U.U.U.K.K.L.-X+.'.oX#X=X4XpXSXBXoX'.oX[.4XrX@.J U R | _.'.'.{.|.}._.O.) H c s 4 O O < 0 7 7 # o < X a.2.4.0.l.4.H.cXW.Q.",
"U.!.Q.Q.!.U.I.U.U.U.-XOX$X#X4X8X9XpXBX9X[.#XpXeXrXwX#XoX[.'.oX=X=X4X<X[.*.@...R G j 0 1 o O < < $ $ = # 2 % 6.w.8.3.4.4.2.w.b.l.",
"U.Q.U.Q.Q.!.lX!.R.U.-X7X,X5X5X8X0XfXdX1X|.<XeXeX9X4X5X9X4X<X8X8X4X4X#X:.X...~ I B j 2 * # # 1 O = = 7 7 t 9 g.y.l.l.w.r.k.y.w.7.",
"N.H.L.Q.Q.U.E.!.!.vXwXyXqX9X5XrX0XfXaX<X$X5XeXdXeXeXeX9X5X0XrX9X8X4X|.*...~ Y B v j 1 * O # 2 # p m j y k C a.M.M.x.M.K.I.L.m.w.",
"m.c.H.K.L.P.L.Q.!.bX4XuXhX0XpXpXpXBXeX<X4X9X0XNXaXeX9X0X0XeXaX8X<X|.'. .W E G c k u 6 < # # # @ m n M h c & A 5.w.r.l.x.l.m.I.P.",
"W.U.U.P.U.U.U.E.!.bX4XyXhXsXpXeXeXNXpX<X<X9X0XfXNXdXaXaXaXpXrX<X|.;.O.~ U J x j j y 0 1 # # # 1 f T E d u O p.x.x.M.C.C.m.b.c.l.",
"m.b.N.N.N.P.L.L.N.bX#X3XyX0X5X8XeXSXgX5X#X+X5XeXNXNXfXNXfXdX0X#X_.X.{ T B b g g a 7 6 1 * 1 # 6 b E ) d =   % D.T.I.I.I.I.J.P.U.",
"x.M.M.m.M.b.B.G.G.jX[.3XqX1XOX6XeXNXeX5X+X|.OX<XqXdXNXNXgXeX8XOX_. .~ U v g a a 0 1 * # # # @ 6 v R ) p .   % g.Z.S.J.U.I.J.I.!.",
"0.q.e.e.l.x.M.M.n.D.[.>X,X{.`.5XNXNX9X4X<X+X|.;. X8XeXgXdX0X4X|.*. .^ I v f p y 7 # @ @ @ @ @ 6 M / G $ . X S V.D.T.jXY.Y.I.K.P.",
"H.N.c.v.k.k.z.i.v.N.oX>X X_. XqXeXpX8X+XOXOX;.} '.<X8X9XeX9X#X`.O.) T J b p q q 2 # o o @ @ = p c c 7 . .   p.f.V.M.n.n.M.l.y.u.",
"lXzXQ.U.P.N.N.N.K.K.-X%.:.*.,X2X4X4X[...T Y I V [.<X<X#X4X<X[.#.) R H G g q 7 6 = # . . @ = q a u 6 @ . . X p.g.x.V.Z.C.S.A.S.A.",
"K.U.!.!.!.!.Q.E.L.!.kX>.;.^.,X>. .Q V m 8 m I { .X<XOX[.|.{.*. .W I B M g 7 2 2 * @ . . @ 6 a a u <     X X s.V.Z.D.S.C.S.C.M.b.",
"A.H.U.lXzXcXcXxXxXxXbXXXX.'. X:X{ n 8 8 J .._.+XoX.X[.'.*.=.O.~ H B M v g 6 = 1 # . . . o 6 s s 4 .   X X % p.a.g.g.f.d.r.d.d.y.",
"K.E.U.U.Q.E.L.L.P.H.U.-X_.^.+XOX[.{ I Q ^.=X4X=X.X[.[.'.#.o.) R J B M M g 6 * # o .     o 6 y 6 .     r C S S t.a.g.f.x.f.8.4.r.",
"H.U.Q.E.Q.E.U.lXxX!.lXkX=.'.|.OX4X=X@X@X8XwX=X@X'.^._.'.=.O.} R H B M M g 6 # # .       . 1 1 .     9 Z ( 1.g.g.g.g.f.d.f.w.4.4.",
"c.N.H.P.U.!.lX!.lXQ.E.bX|._.*.#.[.4XwX8X=X@X'._.=.| @.^.^./.O.) E J G F g 6 # o .         . .       r C S 1.s.a.g.M.M.f.l.n.C.l.",
"!.Q.H.P.P.P.H.N.B.N.N.D.OX$XO.~ W o.#.#.} { ! Q R T ) #.^._./.| ! U J F g 2 o . .                   X Z S p.g.h.V.Z.Z.C.J.J.S.A.",
"U.H.!.lXzXzX!.E.lXlXlXzX#X$X@X$.o.#.#.o. .} W Q T ! O.'.'.'.^.O.! E U J j 2 . . .                 r C S 1.s.g.g.g.V.Z.C.I.I.J.m.",
"U.lXcXxXlXzXlXU.!.!.U.Q.*X}.=XXX@X+X+X+X+X@X[.'._..X=X=X.X.X^.| R R E J s 1 . . .                 ] Z ( s.g.g.h.Z.D.S.I.U.lXI.H.",
"!.lX!.U.lX!.U.!.G.N.L.Q.jX;..XXX+XiX6X6XtX6X+X+X@X+X=X#X.X[./.) R R E G y # . . . . .             l Z 1.s.g.h.g.V.Z.V.C.S.b.y.d.",
"xXQ.lXP.H.U.P.L.!.Q.L.E.L.(.*.`._.{.OX#XoX+X@X.X.X@XoX.X'./.| _ ! R U v 7 . . .   . . . . . . .   > C S S ,.5.5.5.t.8.4.4.3.7.w.",
"N.Q.!.Y.U.E.lXQ.E.!.Q.!.xXjXO._._.{.|.oX.X[.[.[..X@X.X^.=.O.) W ! E H g 1 . . . . o . . o o o . & e 5 Z s.s.f.f.g.M.S.I.I.H.b.k.",
"b.k.b.K.!.xXmXcXcXcXxX!.xX~.;X_..X+X+X<X<X#XoXoXoXoX'.#.| { ) ! W E v 7 # . . . o # o # * @ * 6 k k < + Z A A A A 5.5.8.w.d.l.c.",
"w.b.k.u.l.m.L.Q.Q.Q.xX!.E.E.jX_.+X6XtXtXwX9X5X<X|.{.;. .~ Q ! W E H j 7 @ . . @ 1 * # 2 1 < y P L l 3   9 S A A ,.5.5.3.3.3.3.4.",
"N.k.l.z.u.u.u.e.e.9.9.9.9.2.2.XX].+X6X5X7X9X5XOX{._.@.~ I J U U K F p = @ . @ 1 1 1 6 0 1 y L ` P e       Z g.f.f.d.r.r.7.2.3.3.",
"lX!.L.A.b.k.z.k.k.z.i.i.i.k.i.V.`.].:X<X<X<X#X.X'.#.) J m b B J F j 7 # . @ = 7 7 y u 6 t ' ).' i +       O ( r.d.d.w.w.w.y.l.y.",
"K.U.H.N.P.U.L.N.v.z.z.z.z.i.v.v.%X:.:.}.}.{.'.#.o.W G f 8 p v B g y = @ @ $ 7 p a s t u L (.` i + ; +   X   l A 3.3.3.3.2.0.y.y.",
"y.b.U.I.A.P.Q.lX!.!.E.L.P.L.E.lXjX-.[ X.X. .} ' I b f 7 = 7 d d y 2 $ $ $ 7 a d g j u L (.F.l - ; + + X X X X ( 4.0.y.k.k.b.k.y.",
"N.k.u.b.U.Q.!.Y.U.R.Q.Q.!.!.E.U.Q.jX&.V Y J G m z z 7 1 1 7 p a 7 7 # = 7 a x x j s P &X).k > - ; ; O O X   o 9 3.4.r.u.u.y.k.l.",
"S.U.K.N.c.c.N.H.N.N.L.K.P.P.H.K.P.N.n.( g q 7 7 1 1 = 1 1 7 p a 6 7 1 6 j x c v j H (.&XP 3 , - ; ; ; O o     & ( 7.2.4.2.2.4.7.",
"A.I.I.J.P.P.H.N.N.B.z.i.i.i.i.i.z.b.N.L.s.u # * @ # * = 7 7 y a p 7 p b G J F c L (.-X' 3 - > > , , ; - o X     9 p.2.4.2.2.2.4.",
"K.P.Q.Q.I.I.J.J.H.H.H.P.!.E.U.lXxX!.!.U.G.( 6 o * = = 7 7 q y a d d v J K H J E &XMX<.t 3 5 > , 3 3 ; O O o X X X ] 6.5.6.p.a.g.",
"b.b.m.H.L.E.!.U.U.Q.L.L.P.U.Q.Q.L.P.U.L.P.H.F 2 = = q q w w a d m B Y T E K ` -XMX(.k 3 5 > > , 3 3 < O - O o o o   ( V.V.V.D.V.",
"l.b.z.k.k.k.c.H.H.H.U.!.Q.Q.Q.U.U.U.L.E.E.Q.V.i 6 6 q q w p d b B I ^ R E /.wXFX-XP 4 e > > 5 , 3 3 < : ; - + o X o C *XV.h.h.h.",
"A.P.J.Y.U.K.A.A.H.b.m.N.P.P.P.P.!.!.!.U.U.U.P.L i y y p p f b v I U ^ ) /.MXFXkX' t 5 5 > e 4 3 < < < < 3 ; O O X X X j.V.h.g.h.",
"q.w.y.d.l.M.x.d.l.b.m.C.m.A.J.J.P.A.b.z.k.l.l.r.k s s f f d b n V Q ^ =.MXFXMX).l 3 , 3 3 3 < 5 < < - ; 3 ; ; - o X X   h.g.g.s."
};
