/* XPM */
static char *_44b242038ce4cdfdfe2561a93537253eP4TicVv4qSG5lKF[] = {
/* columns rows colors chars-per-pixel */
"64 64 255 2 ",
"   c #1E3547",
".  c #374659",
"X  c #3B5468",
"o  c #30687B",
"O  c #4C5155",
"+  c #536A77",
"@  c #6C7074",
"#  c #715C6E",
"$  c #913B1C",
"%  c #B35737",
"&  c #B06F39",
"*  c #C87436",
"=  c #B1395A",
"-  c #AA5949",
";  c #BB744A",
":  c #BC5572",
">  c #986162",
",  c #CC5177",
"<  c #D36E70",
"1  c #BAAD3A",
"2  c #D39737",
"3  c #B5944F",
"4  c #AB8771",
"5  c #B2AD71",
"6  c #9C9B79",
"7  c #D89154",
"8  c #D7B354",
"9  c #E8AF4E",
"0  c #CE936D",
"q  c #D3AE6C",
"w  c #F6BC6A",
"e  c #E9BA7A",
"r  c #EFB470",
"t  c #E78B67",
"y  c #D4C76C",
"u  c #F6CB72",
"i  c #DAC252",
"p  c #357896",
"a  c #0F7D9E",
"s  c #6E5B93",
"d  c #547786",
"f  c #6F698C",
"g  c #7E77A3",
"h  c #8C7D8E",
"j  c #A76B87",
"k  c #8B72A7",
"l  c #865B98",
"z  c #CB6D87",
"x  c #1C8B8C",
"c  c #168786",
"v  c #1D809F",
"b  c #218D8E",
"n  c #2F8286",
"m  c #238F91",
"M  c #2B8D92",
"N  c #368B92",
"B  c #269193",
"V  c #2A9395",
"C  c #2E9599",
"Z  c #2B9A97",
"A  c #32969A",
"S  c #3C969E",
"D  c #349A9D",
"F  c #38999D",
"G  c #35868B",
"H  c #1784AE",
"J  c #1A95B9",
"K  c #118CAF",
"L  c #3B9DA2",
"P  c #379FA1",
"I  c #3897B8",
"U  c #2E8CB0",
"Y  c #3DA2A5",
"T  c #37A2A3",
"R  c #48939C",
"E  c #53959D",
"W  c #518893",
"Q  c #758493",
"!  c #429CA4",
"~  c #4B9BA6",
"^  c #5D9BA5",
"/  c #5699A6",
"(  c #509BBD",
")  c #649EAA",
"_  c #679FA4",
"`  c #7996A7",
"'  c #41A1A7",
"]  c #45A3AA",
"[  c #4AA5AD",
"{  c #4AA9AF",
"}  c #46A6AB",
"|  c #54A3AE",
" . c #4CA6B1",
".. c #4EA9B1",
"X. c #47A2BD",
"o. c #53ABB4",
"O. c #5AABB6",
"+. c #5AAEB9",
"@. c #56A7B4",
"#. c #5DB2BC",
"$. c #55B1B8",
"%. c #65A1AD",
"&. c #6BA2AC",
"*. c #6DA4B2",
"=. c #63A9B7",
"-. c #75A9B6",
";. c #61B3BE",
":. c #6AB1BC",
">. c #76B3BD",
",. c #7AA4A6",
"<. c #199AC8",
"1. c #159AD3",
"2. c #279CC9",
"3. c #2E9DCE",
"4. c #1EA2CF",
"5. c #38A5C9",
"6. c #32A7D4",
"7. c #49A8C9",
"8. c #5BA9C7",
"9. c #45ADD5",
"0. c #5BBADA",
"q. c #52B1D0",
"w. c #65B5C1",
"e. c #6AB6C4",
"r. c #65B9C3",
"t. c #6BB9C6",
"y. c #6EBBC9",
"u. c #73BDCC",
"i. c #79BFCE",
"p. c #75B7C6",
"a. c #78B8D2",
"s. c #6CB2D0",
"d. c #52ADD3",
"f. c #75C0CE",
"g. c #78C0CF",
"h. c #76C1D0",
"j. c #7BC3D2",
"k. c #7BC0DD",
"l. c #74C7EB",
"z. c #5BC4DD",
"x. c #8E8E94",
"c. c #AA8F91",
"v. c #8BA491",
"b. c #AEB18C",
"n. c #9492B0",
"m. c #B293A9",
"M. c #84B4BD",
"N. c #95B8B8",
"B. c #8CA5AA",
"V. c #B1B0AE",
"C. c #D2B28E",
"Z. c #EEB08F",
"A. c #D1B4AF",
"S. c #E5BBA2",
"D. c #DF8485",
"F. c #B7C58B",
"G. c #B6C8B5",
"H. c #96C0BC",
"J. c #D4CB8F",
"K. c #F5CF92",
"L. c #D6D9BA",
"P. c #D1CAAF",
"I. c #EFD3B2",
"U. c #FCE2B6",
"Y. c #EAE0A0",
"T. c #E7E2A6",
"R. c #8ABBC5",
"E. c #93BDC6",
"W. c #8DB0CE",
"Q. c #ABB4CA",
"!. c #93A7D6",
"~. c #D7B5CA",
"^. c #8BC2CA",
"/. c #98C3C9",
"(. c #81C6D6",
"). c #83C7D8",
"_. c #85C9DA",
"`. c #8ACBDD",
"'. c #8BC6D3",
"]. c #99CAD8",
"[. c #B7C8C5",
"{. c #ABCBD8",
"}. c #B0CED8",
"|. c #8DCDE2",
" X c #98CBE3",
".X c #96D3E7",
"XX c #9BD8F2",
"oX c #8DD5F1",
"OX c #A5D4E5",
"+X c #BCDCE3",
"@X c #B7D9E5",
"#X c #AFD5F1",
"$X c #9BE6FB",
"%X c #BAE4ED",
"&X c #ABE7FC",
"*X c #BBE8F9",
"=X c #B2F5FF",
"-X c #C7C7C8",
";X c #D9D6C6",
":X c #C5C9DB",
">X c #C9D8DC",
",X c #D5D0CE",
"<X c #E3D7D8",
"1X c #F3D3CC",
"2X c #D4E2DD",
"3X c #F3EBD4",
"4X c #CAD9E5",
"5X c #DBDEEC",
"6X c #D5DAE7",
"7X c #DADEF2",
"8X c #C6D8EE",
"9X c #DDE3EC",
"0X c #D8E5EA",
"qX c #C7E6FB",
"wX c #D8E9F7",
"eX c #C4FBFF",
"rX c #D4F3FD",
"tX c #DDF4FD",
"yX c #DDFAFE",
"uX c #D8FBF9",
"iX c #CBE4EA",
"pX c #E2E4ED",
"aX c #ECE3EC",
"sX c #E4EAEC",
"dX c #EAECED",
"fX c #E1E7E5",
"gX c #F6EBEA",
"hX c #ECF4ED",
"jX c #E5F1EC",
"kX c #F2F2ED",
"lX c #FAF5E8",
"zX c #E4E6F2",
"xX c #E5EAF3",
"cX c #EBEDF4",
"vX c #E5ECFA",
"bX c #EBEDFA",
"nX c #E7E6F7",
"mX c #F2EDF4",
"MX c #F2EDFB",
"NX c #FBEDFD",
"BX c #F7E8F8",
"VX c #E6F3F3",
"CX c #ECF2F5",
"ZX c #EDF9F2",
"AX c #E4F3FD",
"SX c #EDF2FA",
"DX c #E3FBFF",
"FX c #ECFBFE",
"GX c #F2F2F5",
"HX c #F3F3FB",
"JX c #FBF2FE",
"KX c #F4FBFF",
"LX c #FCFCFE",
"PX c #F9F6F4",
"IX c #FFCDE8",
/* pixels */
"] P D D C A L A D L A B A P ' { o.#.+.o... .o.#.o.} ] { ' C L ..' D V V V B m m m V B B V A D B m B b x m B B B V V Z D P [ +.+.",
"+.@.;.y.e.] ! ] ] L D L P { #.f.`.).h.u.u.j.f.;.o.] o.;.o.} P ' { } L D D } } P P ' } } L ' { o.o.] L D D A D P D C V V C A L { ",
"M M M A ! @.e.y.t.e.;.w.{ C L [ o.o.#.#.+.o.o.$.e.u.#.#.+.#.#.j.).`..X.X.X|.j.j.).j.u.y.e.u.f.f.h.j.).j.f.f.h.h.y.+. .{ { ..' o.",
"V V V A ! F L A C ' ..e.u.#.} Y } { #.e.#.+.@.e.:.=.~ S ! ! ~ | ] ! ! { ] ] { { ....o.o.o.o.o.o.o.o...+.w.w.e.u.(.`..XXX|.e.o.[ ",
"w.w.;.#.o...' D V B B S ~ @.;.o.{ o.o.[ F S S M M A F A C F ! ! ] ] +.#.;.u.j.f.h.j.u.w.;.y.y.f._._.).h.y.y.w.#.+.@.;.y.e. .V V ",
"w.w.y.u.u.u.u.u.u.o.P Z B F | [ F S A M b Z D Y o.#.;.f.h.(.`.`._.`.`._.(.(.j.u.e.+.;.| ~ | | ,.,.-.p.p.u.f..X.X.X.X.X_.h.u.;.} ",
"t.;.;.+.e.u.u.u.u.h.f.w.o.] Y ' F D P } } o.;.e.f.y.t.y.u.(._.j.).|.`.|._._.`.`.`.`.`.`.[.K.0 - 9 w J.&.~ ~ [ e.V.h.`.).h.#.+.t.",
"u.h.(.h.;.#.w.w.e.w.y.h.j.j.y.w.e.w.w.e.y.(._.j.(._.(.f.u.j.j.(._.).`.`._._.j.h.j.h.f.L.9 9 r ; 9 9 q U.2X}.N.,X&.} ;.j.`.j.f.u.",
"#.e.u.u.w.w.u.e.e.e.t.e.y.u.u.e.u.h.h.(._.`._.`.`.j.y.u.u.t.t.y.y.y.e.y.u.y.w.>.B.c.I.e 2 2 w 7 * 7 3 S.;X2XaX<X>.| R ^ =.=.@.j.",
"t.e.#.#.e.;.+.w.h.i.t.y.h.u.f.j.j.u._._.(.j.f.y.;.o.' ' ] { ' ] o.o.o.o.+.#.V.e - - 0 u r w e & & Z.S.I.;X<XaX6X].(.p.O.| @.e.j.",
"+.#.;.e.+.{ } D P { ..o.o.;.#.;.r.r.#.o.o.o.o.} P ' ..#.r.;.;.w.y.e.e.e.w.;.u 9 $ - 0 K.K.K.U.1X0 0 S.P.;X,X<X>XR.i.h.u.m.g.u.e.",
"e.e.e.w.u.;.o.o.{ P Z B Z D T Z B Z Z Y ' ' ' Y [ @.{ o.+.w.#.#.w.w.e.y.h.G.u 2 % Z.; K.U.3XlXlX3XC.C.C.P.P.;XL.[.t.u.y.z : p.t.",
"e.e.#.o.+.o.#.} ..{ Y Y Z B Z Z Z Z D P Y } { o.r.f.y.e.t.u.f.y.y.u.y.j.j.L.9 9 r q 0 U.lXfX-XLXgXA.4 S.I.J.U.q e =.#.:.< : n.o.",
"+.#.o.{ o.o.y.e.$.o.} ] ] Y Z Z Z Z B Z Z D Y ..o.{ o.w.t.e.e.t.w.e.j.j.).L.u 8 K.C.U.;Xx.O O @ <XPX1XlXK.C.K.e 7 w Z.D., z Q L ",
"] ' { { { o.[ o.w.f.h.e.o.{ Y P Z D T T ' #.y.e.r.w.w.;.#...[ @.w.h._.`.`.;Xe q S.I.gXV.+ @XQ   O PXLXlX3X1XZ.0 7 t < , = j x m ",
"u.j.j.f.w.w.;...' { #.y.r.#.#.f.y.u.y.#.#.r.o.#.;.#.;.w.e.u.j._.|.|.|.`._.,Xq Z.1XgXgXx.d W X . O ,XLXPXlXlX1X< % % = , Q.|.w.D ",
"j.(.u.y.u.u.#.w.f.e.#.#.$.o.$.$.{ ....#.w.y.f.y.#.#.f.h.j._.`.`._.`.`.`.`.>XA.A.gXZXZXQ +   . f x.fXHXJXmXJXNXm.j j > m.u.j.|.(.",
"g.h.h.y.g.i.u.t.y.e.t.r.e.r.r.w.r.#.r.f.f.;.$.w.u.h.(._._._.`.`.`.`.`.`./.V.A.A.kXfXZX[.+ X + Q -XLXLXJXMXNXNX~.IXNXIX~.:.;.(.`.",
"u.h.h.(.(.(.j.h.f.y.e.r.p.N.R.f.j.t.w.#.r.u.e.f.j.j.j._.j.(.`.`.`._._.H.B.Q.V.1XLXxXKXSXQ.` Q B.<XJXGXCXKXHXLXJXJXBXJXBX_ ] ;.u.",
"t.h.u.e.e.j.L.P.f.h.h.P.8 8 q b.p.f.r.r.u.f._.(.(.j.j.).(.(.u.u.j.(._.b.v.B.P.lXmXSXGXcXLX9XwXtXGXLXGXCXHXCXxXMXLXx.# LXmXp.p.p.",
"t.u.u.f.+.;.Y.q R.u.J.u u 9 i 8 5 ^.f.j.(.h.`._.(.).).(.(.(.h.h.j.)./.F.6 v.3XgXmXJXmXmXGXVXHXHXmXmXcXcXSXFXSXCXHX6Xm.LXmX].j.j.",
"+.w.j.u.y.u.Y.3 4 P.J.y q q u r y 5 i.t.t.y.t.w.e.y.u.h.).).(.(.j.).).J.6 P.lXPXBXNXNXJXhXhXdXdXmXmXHXGXcXSXSXVXSXSXLXcXLX@X(.j.",
"] ] h.t.+.w.Y.5 6 V.G.b.x.> C.I.i 1 G.f.r.;.+.#.;.+.=.;.e.e.;.t.y.e.w.F.5 L.LXxXHXBXBXaXHXCXkXZXcXcXmXmXcXmXHXGXmXGXmXJXGX{.@.P ",
"e.j.h.j.f.y.G.J.P.V.G.[.!.g m.m.1 y b.(.j.u.u.i.u.;.w.+.O.O.O.=.;.=.| N.F.L.hXKXMXMXNXNXmXHXhXjXcXcXaXmXcXaXaXmXmXGXGXGX9X'.e.t.",
"R ! S ! [ [ o.P.C.C.b.G.Q.n.k l 3 q 5 t.u.u.e.w.u.u.u.u.u.u.u.u.y.e.u.u.3X;XkXGXmXMXGXHXBXmXCXVXdXdXdX9X8X@X@X4X9XmXdXdXOX`.`._.",
"[ o.[ ! ! ! ! S P.C.b.{.%XQ.k l > 5 b.h.f.u.f.h.j.h.j.(._.).).(.j.j.h.].3X;XlXlXmXGXGXGXGXBXGXGXsXsX4Xw.w.e.#.w.u.R.R.:.e._.|.`.",
"#.w.u.y.;.r.f.y.#.@.[ ! :.@Xk k # c.V.OXj.h.h._.`._._.j.j.j.j.(.j.).`.6Xc.P.3XlXgXGXCXGXGXGXgXgXsXsXR.L V D C L A { y.u./ u.`.(.",
";.;.;.y.;.e.u.#.r.h.(.(.u.+Xn.s # h V.cX4X+X+X+XiX%X@X@XOX.X.X.X.X.XKXQ h ;X1XlXkXGXGXGXGXGXgXgXcX0X! B B B o.{ x m t.u._.w.+.u.",
"e.t.h.f.u.u.f.t.y.y.h.h.j.wX!.s s f n.cXGXsXSXSXHXHXGXGXGXPXHXHXJXLX*Xd @ -X<XPXVXSXHXMXHXHXGXhXGX0X(.;.x A o.b b C o.b w.`.g.h.",
"u.j.h.h.j.u.u.u.u.u.h.@XnXMXQ.f s f n.5XsXsXSXvXSXHXGXGXkXGXHXHXJXFXW.o + 2XmXaXZXZXHXNXHXHXZXZXGX6X] h.e.+.L L D c b b x D o.} ",
"u.h.u.h.h.j.(.j.i.'.0XnX6X6X4X4X:X:X6XsXsXxXSXvXSXHXHXGXGXGXHXHXGXFX*Xo d 0XNXJXhXhXHXMXHXPXGXZXPX0X#.e.h.u.w.' ....F L ] L A m ",
"#.w.y.h.h.u.f.(.iXsX9X7X7X5X>X>X6X5X9X0X9XsXxXbXSXMXGXGXGXGXHXHXCXAXuX'.W FXNXBXkXhXGXHXPXGXGXGXPX9X@.w.;.o.+.;.#.o.+.u.u.u.+.A ",
"+...w.t.y.e.'.0XcXcXxXxXzXpX5X5XiX4X6X6X9XzXcXnXcXcXSXHXHXHXMXMXJXmXGXHX[.VXCXCXmXBXBXNXNXJXHXHXGX0XB b B B B V L ' [ o.{ +.u.e.",
"g.u.u.e.u.{.0XGXcXcXnXxXzXzXpX5X4X4X6X6X5X9XvXHXHXSXCXbXvXbXSXSXcXPXHXcXfXcXcXPXmXmXGXHXHXHXHXHXGXsX{ ..o.@.+.+.#.#.e.w.#.+...[ ",
"+.o.#.#.^.sXGXcXcXbXcXxXxXnXzX9X6X4X:X:X6X7XnXbXxXnXnXcXCXFXFXFXFXVX9XHX:XpXHXmXmXGXGXGXZXZXZXZXGXcXe.t.t.u.h.j.j.h.g.g.u.t.e.u.",
"| @.@.>.0XGXcXcXcXHXcXxXxXvXxX9X6X4X:X:X8X8XqXwXrXtXtXtXtXtXtXtXwXAX9XSX-XnXHXJXHXGXGXGXZXZXZXZXGXHX`.(.h.h.u.t.u.u.u.j.f.y.u.j.",
"V C D >XcXmXCXcXcXHXcXzXzXnXnXpXwX4X}.{.OX#X&X&X$X$X$X&X*XqXrXAXbXnXnX9XQ.vXKXxXSXSXSXSXHXHXPXHXGXPX@Xh.j.(.(.j.j.).`._.j.u.u.t.",
"w.#./.sXcXcXCXcXcXHXcXzXzXnXxXpX8X}.E.W.a.8.X.I I I I I ( 8.s.(.#XqXwXqXQ.AXSXSXCXCXCXHXHXHXJXJXHXPXsXe.t.y.;.w.t.w.w.w.+.o.L L ",
"(.).0XGXcXcXcXcXcXSXSXnXxXxXxXpXqX X8.U v a H K H H H H H K J J J 7.l.&XW.7XbXMXmXmXGXGXGXNXNXNXHXHXCX].u.t.t.t.e.t.e.e.e.w.e.w.",
"t.u.sXcXcXcXcXcXcXSXSXcXnXxXxXpX#Xp.p p X.z.z.q.0.0.l.l.0.5.J K K J U (  XwXSXmXmXgXkXGXGXMXNXNXHXGXGXiX(._._.(.j.h.u.t.e.w.+.+.",
";.].sXcXcXcXcXcXbXSXSXSXbXcXxXsX*X` E..X_.).f.r.$.} ..#.y.`.&X&Xl.7.U p OXFXnXcXkXkXkXGXCXSXHXHXHXHXmXSXu.y.w.e.e.;.+.{ ' { ' L ",
"t.+XdXcXcXcXcXCXcXcXbXSXSXbXcXcXtXrXqX%X].(._.`.`._.j._._.`.`.(.(.%X*XW.{.AXHXCXGXGXCXCXSXFXFXFXPXGXcXHX..o. .o.o.+.+.o.o.D V P ",
";.+XdXcXcXcXcXcXcXcXbXSXCXCXCXcXnXKXvXvXAXSXCXVXiX@X].].].OXOX+X%XyXKXSXnXaXaXaXmXCXSXFXFXHXHXHXHXcXcXcX(.h.f.t.e.#.@. . .L m B ",
"..}.dXcXcXcXxXcXbXbXbXbXcXcXcXcXHXbXzXMXHXcXCXhXjXhXhXGXGXmXMXMXVXhXsXmXaXaXaXmXcXcXSXSXSXHXHXHXHXcXcXcXp.#.;.;.e.e.e.o.o.;.w...",
"j.@XsXcXcXcXcXcXbXSXcXcXcXcXcXcXPXGXHXHXmXmXHXcXhXVXVXcXcXbXMXMXsXGXdXGXCXSXvXxXcXcXCXGXCXGXGXGXHXcXmXcXR.w.u.j.f.f.u.t.u.u.e.w.",
"u.].sXcXcXcXcXcXcXcXcXcXcXcXcXcXsXcXGXdXcXHXcXHXHXSXSXSXbXbXMXMXcXPXsXCXSXSXvXKXSXbXGXGXGXGXGXkXHXcXcXcXe.y.u.e.e.y.e.y.h.u.u.;.",
"u.'.0XcXcXcXnXcXvXvXcXcXcXcXcXcXZXZXCXCXHXHXvXHXbXcXCXCXSXSXSXCXbXHXSXvXSXFXSXSXSXHXMXMXGXGXGXGXbXMXcXHXh.j.h.u.i.j.h.h.j._.u.w.",
"j.).+XcXcXcXxXxXvXvXcXcXcXcXcXcXjXVXVXFXvXMXHXbXHXHXSXCXVXVXVXVXHXbXHXHXSXSXvXHXSXMXMXMXmXmXMXMXcXMXmXvXf.h.h.u.u.u.e.e.y.+.! ] ",
"`.g.].4XmXcXxXvXvXbXbXbXMXMXcXmXAXSXSXSXSXHXGXCXSXSXHXHXHXMXCXSXMXmXGXGXGXGXHXMXHXHXbXbXHXJXnXHXAXAXtX] P Y L A D D A V m x V D ",
"#.h.j.{.HXcXcXcXxXxXvXnXnXbXbXcXcXCXCXCXCXCXCXCXSXSXSXSXSXSXCXCXmXGXHXGXCXcXHXHXHXHXKXHXvXcXnXbXwXAX%Xu.w.#.w.#.w.e.u.h.f.t.+.] ",
"o.' o.g.}.SXMXaXMXnXxXVXjXVXSXvXkXGXGXHXSXSXSXSXSXCXCXCXCXCXCXCXCXCXHXMXHXHXKXLXLXLXcXcXSXCXZXZXFX0XC A B m b b b B B C L ' [ o.",
"A o.] P ^.}.xXSXcXsXxXjXsX9XxXvXmXPXLXLXKXFXSXCXCXCXcXcXcXCXCXCXZXCXbXbXHXKXKXKXCXGXGXVXVXtXyXrX}.M.A B m b x x b m m x x x x b ",
"#.' { } P ^.E.rXwXVXcXnXbXSXvXAXBXNXNXJXHXCXVXVXVXcXmXmXcXcXVXVXcXSXSXSXSXSXbXnXHXsXsXZXDXuX&Xa.N.u.u.u.e.;.#.+.o.} L L B x x x ",
"(.j.y.;.o.] >.M.%XrXAXvXvXvXxXxXBXMXMXMXbXcXCXCXcXcXmXmXcXcXVXVXxXSXSXvXnXbXHXSXvXDXDXrX%Xa.( +.c x b C L ' ] ] { } L D D L { ! ",
"t.u.w.#.e.u.y.;.=.p.XXrXAXvXMXBXdXdXxXxXvXvXbXMXMXmXcXcXcXcXSXvXuXVXCXcXcXHXHXAXyXeXoX0.X.@.! P A B x x x x x x x x x x x C L L ",
"L o.u.u.;.e.h.(.(.a./ p. XqXDXAXuXuXuXtXtXvXbXbXbXvXvXAXAXAXAXSXuXuXyXDXDXtXqX#Xk.8.X.7. .m x m B B m x x x x b B A ' } } o.] L ",
"#.' P o.u.h.j.i.u.i.i.s.I I 0.l.$X=XeXuXDXAXFXAXAXDXDXAXDXDXDXyXeX=X&XXXoX0.9.3.2.6.q.o.[ ] L V B m x x x x x x x m P L P L ] { ",
";.u.t.#.....#.w.#.#.y.t.e.q.5.5.U I 8.a.a.XX.X.XXXXXXX.X|.|.(.u.0.d.7.5.U 2.2.6.q.w.y.h.t.;.+.o.L V x x x x x m B B x b x x b m ",
";.p.p.e.e.e.w.#.#.$.} T Y Y Y Y 7.d.2.J <.4.<.4.<.2.2.2.2.4.<.<.1.1.4.6.9.8.u.y.g.u.w.u.j.u.u.u.t.#.{ L B b b b B m x b x x x b ",
"t.e.h.h.u.u.e.e.w.w.w.e.h.f.u.(._.j.j.t.7.7.q.9.9.5.5.5.5.5.7.q.7.8.w.w.w.y.#.;.;.y.j.(.-.*.*.%.) %.%.%.%.^ R R N G G n G N R ^ ",
"o.o.+.w.y.f.j.u.u.h.y.y.e.u.h.h.y.t.u.y.r.w.h.f.e.u.u.e.u.j.e.w.w.w.w.;.#.o.w.w.o.;.#.;.%.*.-.*.-.) / ^ ^ / ^ ) *.*.*.*.&.&.-.*.",
"} o.} ] ] ' ..w.w.w.u.j.h.h.h.u.u.u.t.f.f.h.f.w.w.y.u.u.u.g.u.y.u.u.t.e.e.u.u.u.e.w.o...R ) ) M.}.E.*././.R.E.E./.E.E./.%.) ) ) ",
";.e.e.i.u.t.;.;.w.o.$.#.e.e.e.e.h.j.h.u.u.u.e.#.e.e.e.u.u.y.j.j.i.j.h.u.e.u.h.j.j.u.t.t.) &.%.M./.R.&./.R.M.M.M.R.M.-.R.&.) ^ ) ",
"C A L ! [ @.| ! [ @.+.=.+.;.e.e.e.;.o.} ] { { ' ] { { o.#.y.e.w.e.w.w.;.w.e.u.y.w.+.#.;.^ E E R E ^ %.>.*.-.) ) ^ ) ) ^ ) ^ / E "
};
