/* XPM */
static char *_9def4cafd1f4bbeea4fd4e553c3e90dZkMjzuSfNN5YabDN[] = {
/* columns rows colors chars-per-pixel */
"64 64 244 2 ",
"   c #130400",
".  c #190A04",
"X  c #1A1614",
"o  c #130B09",
"O  c #240B03",
"+  c #29140B",
"@  c #341509",
"#  c #2D1A14",
"$  c #261A18",
"%  c #341C14",
"&  c #340E03",
"*  c #2A231E",
"=  c #34221C",
"-  c #3B231A",
";  c #392A24",
":  c #2B3232",
">  c #193235",
",  c #431A0F",
"<  c #462618",
"1  c #57281A",
"2  c #4A2A23",
"3  c #552E24",
"4  c #4B3429",
"5  c #573629",
"6  c #493833",
"7  c #593D33",
"8  c #66372C",
"9  c #693B33",
"0  c #6D372C",
"q  c #622A1F",
"w  c #324E3B",
"e  c #5A4337",
"r  c #5C402F",
"t  c #684639",
"y  c #75483A",
"u  c #724D3A",
"i  c #2A3F40",
"p  c #385A5C",
"a  c #324F49",
"s  c #306F6F",
"d  c #3B645E",
"f  c #495A48",
"g  c #555E4C",
"h  c #515251",
"j  c #774C42",
"k  c #6A5144",
"l  c #785548",
"z  c #6F564F",
"x  c #586956",
"c  c #50634E",
"v  c #67715D",
"b  c #716655",
"n  c #586664",
"m  c #4E7171",
"M  c #6C776B",
"N  c #4F5E63",
"B  c #89543D",
"V  c #865848",
"C  c #885C55",
"Z  c #8F544D",
"A  c #896658",
"S  c #976858",
"D  c #99715D",
"F  c #906550",
"G  c #A9755C",
"H  c #AB6F5A",
"J  c #8A6962",
"K  c #976D63",
"L  c #987466",
"P  c #95766D",
"I  c #A76863",
"U  c #A47B6C",
"Y  c #AC7C6C",
"T  c #A77666",
"R  c #B57969",
"E  c #A77C72",
"W  c #B87A73",
"Q  c #B96F6F",
"!  c #C27876",
"~  c #D27776",
"^  c #78837E",
"/  c #91857D",
"(  c #B5836D",
")  c #BB846D",
"_  c #BC886C",
"`  c #AC8372",
"'  c #A88478",
"]  c #B38474",
"[  c #BB8572",
"{  c #BC8B75",
"}  c #B58C7C",
"|  c #BB8C7C",
" . c #B58778",
".. c #BE917D",
"X. c #B3927D",
"o. c #A6826F",
"O. c #C38B74",
"+. c #C38D7B",
"@. c #C98978",
"#. c #D68A7A",
"$. c #C4927C",
"%. c #CB927C",
"&. c #CB967B",
"*. c #D7957C",
"=. c #C1806D",
"-. c #E3987E",
";. c #507C83",
":. c #687C83",
">. c #1C8B8C",
",. c #168786",
"<. c #218D8E",
"1. c #2F878B",
"2. c #37878B",
"3. c #248F91",
"4. c #388B92",
"5. c #269193",
"6. c #2A9395",
"7. c #2E9699",
"8. c #31969B",
"9. c #35999D",
"0. c #3A959C",
"q. c #3B9DA3",
"w. c #379CA0",
"e. c #3CA3A6",
"r. c #44949C",
"t. c #528A91",
"y. c #65929B",
"u. c #6D8B8E",
"i. c #479BA4",
"p. c #599BA6",
"a. c #659EA8",
"s. c #799EA4",
"d. c #41A1A6",
"f. c #44A3AA",
"g. c #4BA5AD",
"h. c #46A9AE",
"j. c #57A3AC",
"k. c #4DAAB1",
"l. c #4BA9B1",
"z. c #53ABB5",
"x. c #5AAEB9",
"c. c #58A8B4",
"v. c #5DB2BC",
"b. c #55B2B9",
"n. c #4EB1B7",
"m. c #67A2AD",
"M. c #68A8B6",
"N. c #61B3BE",
"B. c #6BB2BD",
"V. c #77A8B2",
"C. c #5EB8C1",
"Z. c #65B6C2",
"A. c #6AB6C3",
"S. c #65B9C4",
"D. c #6BB9C6",
"F. c #6DBCC9",
"G. c #73BDCC",
"H. c #7ABECD",
"J. c #73B7C6",
"K. c #7BBFD0",
"L. c #75C0CE",
"P. c #79C0CF",
"I. c #76C2D0",
"U. c #7CC3D2",
"Y. c #7FC8D8",
"T. c #8F9393",
"R. c #B98C82",
"E. c #BB9486",
"W. c #AE928E",
"Q. c #87A9B0",
"!. c #AAA1A2",
"~. c #C58D84",
"^. c #D88B84",
"/. c #C39383",
"(. c #CB9583",
"). c #CC9A84",
"_. c #CC9B8C",
"`. c #C7978A",
"'. c #D39483",
"]. c #D49B85",
"[. c #DA9B85",
"{. c #D49D8B",
"}. c #DC9B8C",
"|. c #D99488",
" X c #CA9C92",
".X c #D89C93",
"XX c #E39D8C",
"oX c #E59986",
"OX c #E49D93",
"+X c #EA9B96",
"@X c #E69087",
"#X c #DCA38D",
"$X c #D5A18A",
"%X c #CCA295",
"&X c #D4A393",
"*X c #DCA494",
"=X c #DAA89A",
"-X c #C9A18D",
";X c #E4A28D",
":X c #EBA48D",
">X c #EAA68A",
",X c #F3A68F",
"<X c #E3A493",
"1X c #EBA594",
"2X c #ECAB94",
"3X c #E4AA9B",
"4X c #EBAB9B",
"5X c #E7A698",
"6X c #F3AB94",
"7X c #F3AD9C",
"8X c #F7AA96",
"9X c #E6B19C",
"0X c #F4B29C",
"qX c #FBB29C",
"wX c #FAB097",
"eX c #DDAEA1",
"rX c #DFB2A3",
"tX c #E7ACA1",
"yX c #F2AEA2",
"uX c #F3A8A1",
"iX c #ECB3A4",
"pX c #E9B4A7",
"aX c #F4B3A4",
"sX c #FCB5A2",
"dX c #FDBAA5",
"fX c #F5BBAB",
"gX c #FCBCAC",
"hX c #F8B7A9",
"jX c #FDBDB1",
"kX c #F3BFB1",
"lX c #FEC3B4",
"zX c #FECABB",
"xX c #FCC6B7",
"cX c #FCC4B2",
"vX c #8FBAC4",
"bX c #81C6D6",
"nX c #84C7D8",
"mX c #85C9DA",
"MX c #8ACBDD",
"NX c #80C8D7",
"BX c #93C4D0",
"VX c #95D3E6",
"CX c #8DCEE0",
"ZX c #FFD0C1",
/* pixels */
"f.w.9.9.7.8.w.8.9.w.8.5.8.w.f.g.z.v.x.g.t.; X $ X X * X o X * $ X X $ $ X $ * ; * ; 6 ; : 2.9.5.3.5.<.>.3.5.5.5.6.6.7.9.w.g.x.x.",
"x.z.N.F.D.f.e.f.f.q.9.w.w.g.v.L.MXnXA.$ $   $ o   o X X o $ $ $ $ $ ; $ $ * * * ; ; ; 6 6 4.g.z.z.h.w.9.9.8.9.w.9.8.7.7.7.8.q.g.",
"1.1.1.0.i.c.A.F.D.A.N.Z.g.7.q.g.z.j.i X . .   .   . o o . . O . # # $ + + = # $ = = = ; 6 N J.L.U.Y.nXY.L.L.I.I.F.x.g.g.g.k.d.z.",
"6.6.6.8.i.0.q.8.7.f.k.A.G.v.f.e.4.s X . . .   O # % # # = - - - 2 = % + + + O + # % % + % ; ;.i.z.z.k.x.Z.Z.Z.G.Y.MXVXVXCXD.z.g.",
"Z.Z.N.v.z.k.f.9.6.5.5.0.i.c.N.i.s o   . O @ < 5 t t t l A K A K A A l t t 5 < < < - @ + O # ; t.J.MXnXI.F.F.Z.v.x.z.v.D.D.l.6.6.",
"Z.Z.F.G.G.G.G.G.G.z.w.6.5.0.i.2.>     + 5 l S ` Y ` ] | _.&X-X&X_. X_.|  . .U L K A l t < O # 6 h ;.m.J.G.L.VXVXCXVXVXnXI.G.v.f.",
"D.N.N.x.D.G.G.G.G.I.G.Z.z.f.0.s   . - l U  .(.(.].$X*X*X3X3X<X<X*X*X3X=X=X9X=X&X(./.R.E A 7 % % ; 6 f t.i.i.g.Z.F.I.MXnXI.v.x.D.",
"G.I.bXI.N.v.Z.Z.D.Z.F.I.U.G.t.X @ < b `  .+.&.*.[.XX;X;X:X2X2X2X0X1X2X2X4X2X<X#X<X(.(.+.] U t < + ; 6 V.H.A.p.r.i.f.N.Y.MXY.I.G.",
"v.D.G.G.Z.Z.G.D.D.Z.D.D.G.m.p $ < A U ) O.@.*.*.oXoXoX:X,X,X,X,X8X8X6X6X6X6X1X;XXX[.*.%.+.| T u % % ; u.bXnXbXJ.B.j.r.p.M.M.c.U.",
"D.D.v.v.D.N.x.Z.I.H.D.F.G.;.$ # t D ( _ @.#.-.-.oXoXoX,X6X6X,X,XwXwXwXwX6X6X1X:X:XXX[.*.%.%.[ D 7 < 4 m H.nXI.nXnXbXJ.c.j.c.A.Y.",
"x.v.N.D.x.g.f.9.w.g.k.z.i.p = ; F Y ) O.#.#.-.oXoX,X,X8XwXqXwXwXwXqXqXwXwX8X6X6X,X:XoX[.*.&.@.) A 5 5 n i.x.G.U.G.L.I.G.L.I.G.Z.",
"A.D.D.Z.G.N.z.z.g.w.7.5.s > # 7 G ( _ @.*.*.-.oX,X8XqXqXsXsXqXsXsXdXdXsXqXqXqXqX8X6X:XoX[.%.@.O.o.t < h 0.9.q.g.v.D.G.F.I.bXD.D.",
"A.A.v.z.x.z.v.f.k.l.e.w.s $ = z T ( O.%.*.*.>X:X8XqXsXdXdXdXdXdXdXgXdXdXdXdXdXsXqX8X6X1X;X'.@.@.` A 5 n Z.v.z.k.z.x.v.v.v.x.v.z.",
"x.v.z.g.z.z.F.D.b.z.h.d.s O 4 J ( ) O.&.*.-.>X6X0XsXdXlXlXlXlXlXlXlXlXlXcXlXgXdXsXqX7X6X<X[.&.%. .L t k M.L.H.G.A.Z.Z.z.q.8.8.q.",
"f.f.g.g.g.z.g.z.Z.L.I.N.p = e P ) ) O.&.*.;X>X2X0XhXcXlXlXlXlXlXzXzXzXxXlXlXlXgXdX0X7X7X<X#X{.(.`.Y V 7 y.nXMXnXnXY.Y.U.N.q.>.3.",
"G.U.U.L.Z.Z.N.k.d.l.v.B.p = k P _ ) O.*.$X>X>X2X0XfXlXxXzXzXxXxXzXzXzXxXxXlXlXgXgXaXaX7X<X#X#X(. .} A 7 u.bXnXMXMXbXG.bXVXMXZ.9.",
"U.bXG.F.G.F.v.Z.G.S.v.j.a = k L _ O.O.*.>X:X6X8XqXdXlXlXlXlXlXlXlXxXxXlXxXlXlXgXgXaXaX7X4X<X*X].{ [ D j m 8.f.z.G.I.G.Z.G.U.CXbX",
"P.I.I.F.L.H.G.D.D.S.D.j.a - k L _ O.@.*.:X6X8XqXsXdXgXgXgXgXcXcXjXlXxXzXlXcXfXfXhXaX7X4X4X3X*X{.&.{ S j n 5.3.,.>.3.8.z.v.N.bXMX",
"G.I.I.bXbXY.Y.I.G.F.D.p.a ; t K ) O.O.'.:X6X0XsXsXdXgXlXlXlXgXfXhXjXlXzXxXcXfXfXgXhXaX7X4X3X*X{.$.$.I j m A.Z.D.N.f.5.>.7.f.N.G.",
"D.I.G.D.D.U.H.G.L.I.I.m.: = e J ) O.%.'.:X6X0XsXdXhXfXlXlXlXlXgXgXfXjXlXzXxXlXlXgXhXaXaX4X3X=X*X)./.U j :.J.J.bXbXH.P.A.N.A.J.J.",
"D.G.G.L.x.N.G.I.G.F.Z.p.X # 6 J ( O.%.].;X2X0X0XhXfXfXlXzXzXzXzXlXjXlXzXzXzXxXlXfXaXiXiX3X*X&X_.).$.` y :.bXbXH.G.A.J.G.H.K.U.U.",
"x.Z.U.G.F.G.P.L.Y.I.A.p.X $ 2 C ) +.).[.;X2X2X0XfXfXlXzXzXzXzXzXxXxXxXzXZXzXkXiX3X*X*X*X&X&X{.(.....| y N j.p.j.B.B.M.J.bXbXY.U.",
"f.f.I.D.x.Z.I.bXY.Y.S.i.* # - C [ $.).].[.#X;X<X3X*X=XtXiXfXfXfXlXlXzXzXzXcXeX XY T Y ] +./.| ] ../.} j h 4.r.B.nXnXMXG.G.H.z.w.",
"D.Y.I.Y.L.F.F.F.D.D.G.B.i $ % J ) +.%.%.%.%.'.].(. .Y Y  .(.=XiXgXlXlXxXkXiX&XR. .Y Y ] /./.| Y U ..R.l n H.nXMXMXbXU.U.nXI.A.D.",
"r.i.0.i.g.g.z.v.v.D.F.I.p # - K [ O.[ R R O.'.#X(.{ ] ]  ./._.=XiXlXlXfXpX=X_.`. X=XrXpXrX=X_...` } } l M CXVXMXbXU.MXCXCXMXMXnX",
"g.z.g.i.i.i.i.0.0.i.x.Z.m # 2 P R ) ) ( O.{.*X3XtXeXeX&X_.`._.&X3XfXlXfXtX&X_._. X=XeX=X=X%X_._.| E.E.l n B.v.Z.G.G.J.B.A.nXMXMX",
"v.Z.G.F.v.S.L.F.v.z.g.i.m O 2 P ( ( R _ '.*X*X*X&X=X=X X&X_.{._.<XiXlXfX5X{._.`./.`.`.E.`./.`./.| | E.j k u.7.w.8.g.F.G.p.G.MXbX",
"N.N.N.F.N.S.G.v.Z.I.Y.bXQ., % L [ [ ) O.].].(./._._.`. ./.`.&X&X*X4XgXfX}.{.{./.U K A j F S ] ] E./.`.V l / T.m.>.3.D.G.mXZ.x.G.",
"A.D.I.L.G.G.G.D.D.F.s.W.R.8 < J [ [ O.O.%.[ T T V V A L |  .&XiX<X4XhXyX}.*X=X`./.C l L U y V  .`._./.C C E ' u.<.7.z.<.Z.MXP.I.",
"G.U.I.I.Y.G.G.G.G.G.u.L  .V < A O.+.%.@.) H V V F V S E.=X_.9XfX<X<X4X1X}.*XtX=X%XR. .` ` S D  ._._.| V S Y ' s.9.,.<.<.>.9.z.g.",
"G.I.G.I.I.Y.bXY.K.G.Q.S W F < A O.%.%.&.[ G F F ] T T E._._.iXiX;XXX1X1X}.}.3XtX X%X%X`.`././.(.&X_./.V T R.E.s.k.k.0.w.f.q.8.3.",
"v.Z.F.I.I.G.L.Y.I.U.vXR..XR , V _ %.].$X].%.{ | /.`._.%X_.&XfX*X;X[.1X7XXX'..XtXpXeX%X X X_._.&X.X`./.V W _.!.B.v.z.x.G.G.G.x.8.",
"x.k.Z.D.F.D.D.I.Y.Y.P.!._.W 1 u [ %.{.XX<XXX}.}.}..X*X*XiXgX0XXXXXXX1X4X<X|.{.4XfXjXfXiX3X<X<X<X.X_. .j ` %XT.6.w.d.g.z.g.x.G.D.",
"L.G.G.D.G.G.G.L.U.U.I.!. X~.3 u R O.'.OX4X4X1X4X4XtXfXlXlXgX1XXX@XXX1X1XXX|.|.4XaXjXfXaXiX3X5X<X*X_.{ j } E.Q.x.v.v.Z.N.v.x.k.g.",
"x.z.v.v.v.S.F.F.v.C.C.V. X~.t t T [ (.<X7XaX7XaXhXgXlXzXlXaX1XXX@X@X,X+XXX|.|.5XyXhXaXaXaX4X3X<X.X_.W l E.!.H.Y.Y.I.P.P.G.D.D.G.",
"j.c.c.x.c.z.b.C.C.b.n.l.!. Xj 8 T ( %.}.7X7X7XaXhXgXjXgXaXyX1XOX#.@X,X1XOX|.^.OXyXhXaXyXyX4X4X<X.X`.T V E.Q.G.F.G.G.G.U.L.F.G.U.",
"6.7.9.9.g.j.j.j.x.x.v.Z.Q. XV q I Y +.}.2X7X7XaXyXhXhXgXhXyX1XXX#.@X+X1XOX|.@.'.4XhXaXiX4X4X4X<X{.(.K S W.vXbXU.Y.nXMXnXU.G.G.D.",
"Z.v.k.l.f.f.h.e.l.b.l.n.B.T.E 0 S Y +.{.<X1X7X7XaXaXhXjXjXuXXX#.#.oX8XyX7X}.@.@.5XhXhXaXaX4X1X}.'./.K U T.J.N.Z.D.Z.Z.Z.x.z.q.q.",
"bXnXI.G.S.v.v.v.D.F.F.U.nXQ.W.9 V T | ].XX1X7X7XdXdXgXgXhX1X|.#.^.XXyXdXyXOX@.@.}.yXaXaXyX4X1X}.'.R.K ' Q.D.D.D.A.D.D.D.D.Z.A.Z.",
"D.G.Y.Y.U.Y.I.L.F.U.bXY.nXH.T.9 y S ] (.}.1X7XqXdXjXjXaX4XOX|.#.! #.OX4XOX~.Q Q |.4XyXuX4X4X1X}.`. .K T.Q.nXnXbXU.I.G.D.D.Z.x.x.",
"N.Z.G.bXnXMXMXnXnXnXnXMXnXbXy.h 3 A ] | }.<X1X7XaXhX4X5XuXuX^.Q I I W W W I Z W OX+XuXuX5X+XOX@X~.| A T.G.F.Z.A.A.N.x.g.f.g.f.q.",
"D.L.G.G.I.L.F.F.Z.Z.F.F.F.L.F.t.< l U ] {.*X1X7XaX4XOX5XyX4X|.@.W W W T S Z Z Q |.OXOXuXuX+XOX^.R. .A y.k.k.l.k.z.x.x.z.z.9.6.w.",
"Z.G.I.L.I.L.G.bXnXY.NXnXnXY.nXJ.h e L ] (.}.;X4X<X<X<X5XOX|.W I l A  .E.U 9 1 9 C W ~.=X3X.X*X{.} L M V.I.I.L.F.A.v.z.l.l.w.3.5.",
"k.v.Z.S.G.Y.bXY.bXI.L.bXU.I.I.G.N 4 A E /.{.#X<X3X'.@.W I Z 9 q , 7 A E.U 3 & , < t C E  X&X X/.` A ;.x.x.v.N.N.D.D.A.z.z.N.Z.k.",
"U.I.Z.D.D.S.Z.v.b.v.v.v.C.C.v.S.m ; k L E.{.#X#X+.Z y 0 9 0 1 , @ < t ' E 7 @ , < < 3 u o.%X-XX.L l u.F.A.Z.G.U.L.L.G.D.G.G.D.Z.",
"G.Z.U.bXnXnXU.G.bXbXbXnXnXbXbXbX;.= e A | {.&X%.V 1 1 1 3 0 9 q 9 j L %X XA t 9 8 < < < l E.`.} l n a.F.A.F.G.A.D.F.D.F.I.G.G.N.",
"G.bXMXnXbXnXbXG.U.Y.L.I.G.H.D.G.p.: 4 l ` /.$XO.0 q B y 9 V U U W ! |..X'.W I I V y 8 1 t ` } F t u.G.G.I.Y.I.G.H.U.I.I.Y.nXG.Z.",
"U.bXU.G.bXU.G.U.C.C.F.I.F.I.F.L.D.N ; t L { $XO.S F /. .S C K K ! ! ! ! Q Q I Z Z I T y t D T u g j.D.G.L.I.I.G.G.G.A.D.F.x.d.f.",
"MXI.Y.D.Z.G.D.F.Y.I.F.G.D.C.C.C.Z.m # 6 b K /.&X..$.3X<X[.=.R R @X@X^.~ ~ ~ ! Q @.*.].[ F D F t N 8.9.9.w.i.q.8.9.9.8.6.3.>.6.9.",
"v.I.U.G.G.L.bXI.L.U.I.Y.nXU.L.F.L.y.% ; t l U ).$X$X9X4X2X;X[.*.^.+X+X+X+X@X#.^.XX[.].(...U l t t.G.D.F.Z.x.Z.v.Z.D.G.I.L.D.x.f.",
"z.d.z.D.Y.nXCXMXmXMXnXU.nXY.nXVXVXQ.6 % 2 t S  ._.].<X<X2X:X;XoX<X5X}.}.OX|.^.}.;X$X#X).] L u b r.0.7.7.6.5.3.<.<.5.5.7.w.d.g.z.",
"8.z.f.w.g.x.F.I.L.I.nXY.L.L.I.F.S.u.z - @ 5 S Y /.$.$X<X2X2X;XoXO.| +.O.R T O.{.#X#X$X .` L t a.N.d.8.3.3.<.>.>.<.3.3.>.>.>.>.<.",
"v.d.g.f.w.w.w.9.9.5.5.5.5.>.>.>.5.^ P 7 @ < C ] ..( _ $X2X2X:XoXT S F F B F $.=X&X&X{ D ` l k t.z.G.G.G.D.N.v.x.z.f.q.q.5.>.>.>.",
"bXY.F.N.z.f.h.f.f.h.e.e.e.e.e.e.d./ ' A < & 8 L  .Y T ).#X<X2X2X{. . .+.O.{.9X=X&X_.` D D 5 M 1.,.>.<.7.w.d.f.f.g.f.w.8.9.q.g.i.",
"D.G.Z.v.D.G.F.v.l.h.h.h.h.e.l.l.c.T.' U u , , 9 D D D ../.&X9XfXhXaXfXfXtX3X3X{.E.D l k r 4 m q.8.5.>.>.>.>.>.>.>.>.>.>.>.7.q.q.",
"q.z.G.G.N.A.I.bXbXU.L.F.S.F.L.bXJ./ ]  .T j < < 9 t k L o.E.%X=X4XhXfXiXpX=X~.Y U l 1 < - k m 3.5.5.3.>.>.>.>.<.5.8.d.h.h.z.f.i.",
"v.f.w.z.G.I.U.H.G.K.I.I.U.Y.L.G.T.S ( |  .Y j @ @ 2 4 4 z J L ' +.*XtXtX=X .S y j 3 & & 7 J M 4.5.3.>.>.<.>.<.<.>.3.w.q.w.q.f.g.",
"N.G.D.v.k.l.v.N.v.v.F.A.m.M.a.u.F S ) $.$.| K t & O + + ; e k z S Y  X%XR.C y 5 2 @ O 3 L P k n r.6.>.>.>.>.>.3.5.5.>.<.>.>.<.3.",
"N.J.J.A.A.D.Z.v.v.j.t.m m m m g B H _ $.).).| L u + . . . # = 6 u b ' W.J 7 2 % O   2 J P P A 3 M y.p.0.5.<.>.<.5.3.>.<.>.>.>.<.",
"D.A.I.I.G.G.A.M.t.m n f g g x v V G O.@.(.)./.| L 5 @ .     . # - e b b 6 = + O O 3 A ' U U L y b u.u.y.p.p.r.r.4.2.2.1.2.4.r.p.",
"z.z.x.Z.F.B.a.t.N f f f g g g v F T O.%.%.]././. .L k < O       . = 4 - O . . + t K o.` ` T D F b M M u.t.t.p.a.M.m.V.m.m.m.V.V.",
"g.z.f.r.2.s d w a f c c g g g v S Y O.%.'.].).)...| L b e - # + . O O # % - 4 z L o.`  .Y G T H M v v M M s.Q.vXBXvXvXBXm.a.a.a.",
"N.A.t.t.m a w w w w c f f f f v D Y { %.'.[.].].].| ] } ' L A A A l k l b J J E U }  .) Y G ( G x v v M v x u.Q.vXQ.V.vXm.a.p.a.",
"s s d p w w w w a w c c f c f x D T [ $.&.'.[.$X].+...} } E.-XE.E.R.R.E.R.R.E E  ./.{ _ T G _ R v x x M M x v n u.a.a.p.a.p.p.p."
};
