/* XPM */
static char *_361e757504f4f27f91d347d67cbc4faIetdSGx8Gt2ruTSV[] = {
/* columns rows colors chars-per-pixel */
"64 64 210 2 ",
"   c #000101",
".  c gray6",
"X  c #060D0D",
"o  c #061617",
"O  c #151515",
"+  c #102023",
"@  c #042525",
"#  c #2C2C2C",
"$  c gray14",
"%  c #323232",
"&  c #164143",
"*  c #4E4E4E",
"=  c #515151",
"-  c #555A5B",
";  c #4D5A5A",
":  c #535E61",
">  c #4B6668",
",  c #5C757B",
"<  c #516C70",
"1  c #656565",
"2  c #6B6B6B",
"3  c #676B6C",
"4  c #7F7F7F",
"5  c #727272",
"6  c #60767B",
"7  c #597A81",
"8  c #637C83",
"9  c #168787",
"0  c #1C8B8C",
"q  c #218D8E",
"w  c #2F8286",
"e  c #35868B",
"r  c #238F91",
"t  c #308A92",
"y  c #3F8C92",
"u  c #269193",
"i  c #2A9396",
"p  c #2E9599",
"a  c #2D9D9D",
"s  c #31969B",
"d  c #3D959E",
"f  c #34999D",
"g  c #39999F",
"h  c #379CA0",
"j  c #3C9DA3",
"k  c #2DA5A3",
"l  c #34A2A3",
"z  c #3DA2A6",
"x  c #3CA5A8",
"c  c #35A9A9",
"v  c #3EA8AB",
"b  c #478F96",
"n  c #42939D",
"m  c #4B929A",
"M  c #53959D",
"N  c #638486",
"B  c #64858B",
"V  c #62898D",
"C  c #6B898C",
"Z  c #688789",
"A  c #6C8D97",
"S  c #708F94",
"D  c #65979B",
"F  c #73959B",
"G  c #439CA4",
"H  c #499BA5",
"J  c #4A9AA6",
"K  c #5D9BA5",
"L  c #589FAC",
"P  c #5798A3",
"I  c #639EAA",
"U  c #749BA2",
"Y  c #7C9FA8",
"T  c #41A1A7",
"R  c #44A3AA",
"E  c #4AA5AD",
"W  c #44A9AE",
"Q  c #49A8AE",
"!  c #53A4AE",
"~  c #5DA0A4",
"^  c #4DA7B0",
"/  c #45AEB1",
"(  c #4EA9B1",
")  c #51A7B1",
"_  c #5AA5B2",
"`  c #53ABB5",
"'  c #59ABB6",
"]  c #56AFB8",
"[  c #5AAEB9",
"{  c #55B2BA",
"}  c #5DB2BC",
"|  c #4EB2B8",
" . c #65A2AC",
".. c #69A1AD",
"X. c #64A0A2",
"o. c #77A0A8",
"O. c #7CA3AB",
"+. c #76ABAE",
"@. c #65A4B2",
"#. c #6DA4B2",
"$. c #62ACBB",
"%. c #68AEBC",
"&. c #62ABB6",
"*. c #71A6B3",
"=. c #7CABB3",
"-. c #7BACB9",
";. c #72ACB6",
":. c #61B3BE",
">. c #69B0BF",
",. c #79B3BB",
"<. c #5EB6C0",
"1. c #5AB8C0",
"2. c #65B6C2",
"3. c #65B6C2",
"4. c #6AB6C4",
"5. c #65B9C4",
"6. c #6ABAC6",
"7. c #6BB9C6",
"8. c #6EBCC9",
"9. c #71B7C6",
"0. c #73B9C6",
"q. c #73BDCC",
"w. c #79BECD",
"e. c #77B9C7",
"r. c #7BBFD0",
"t. c #6FC3CE",
"y. c #76C0CF",
"u. c #75C0CE",
"i. c #78C0CF",
"p. c #76C2D0",
"a. c #7BC3D2",
"s. c #7FC9D9",
"d. c #828282",
"f. c #8E8E8E",
"g. c #808B8F",
"h. c #989898",
"j. c #84AAB5",
"k. c #84B3BC",
"l. c #88B4B8",
"z. c #95BABD",
"x. c #9AB6BA",
"c. c #A5A5A5",
"v. c #A5AAAB",
"b. c #ACACAC",
"n. c #B2B2B2",
"m. c #B5BBBD",
"M. c #BCBCBC",
"N. c #A7B5B7",
"B. c #85BBC3",
"V. c #8BB9C2",
"C. c #84BFCA",
"Z. c #8ABFC9",
"A. c #8CB7C0",
"S. c #94BCC3",
"D. c #9ABEC6",
"F. c #A6BDC2",
"G. c #AABEC3",
"H. c #81C1CD",
"J. c #8CC2CC",
"K. c #8DC0C7",
"L. c #94C3CB",
"P. c #9BC2CA",
"I. c #99C1C6",
"U. c #81C5D6",
"Y. c #8DC5D1",
"T. c #83C7D8",
"R. c #85C9DA",
"E. c #8ACCDD",
"W. c #9DCAD4",
"Q. c #99CDDA",
"!. c #98CAD5",
"~. c #9CD1DE",
"^. c #A6C2C5",
"/. c #AAC0C5",
"(. c #A2C5CC",
"). c #AAC5C9",
"_. c #B5C9CC",
"`. c #B5C7CA",
"'. c #A7CDD6",
"]. c #ABD3DC",
"[. c #A5D2DD",
"{. c #BAD3D6",
"}. c #8CCFE1",
"|. c #90CEE0",
" X c #8BD1E2",
".X c #92D2E4",
"XX c #96D4E8",
"oX c #9BD7EC",
"OX c #ACD8E5",
"+X c #B2D9E4",
"@X c #B9DCE6",
"#X c #BEE0EC",
"$X c #C5C5C5",
"%X c #C4CACC",
"&X c #CBCBCB",
"*X c #C3CFD2",
"=X c #C7D7D8",
"-X c #D2D2D2",
";X c #DBDBDB",
":X c #C6DFE5",
">X c #CCE4EA",
",X c #D3E3E6",
"<X c #D0E5EC",
"1X c #DEEAED",
"2X c #DBE5E5",
"3X c #E5E7E8",
"4X c #F6F6F6",
"5X c #FEFEFE",
"6X c #F5F9FA",
"7X c #EDF1F2",
/* pixels */
"R h f f p s h s f h s u s h R E ` } [ ` ( ^ ] } ] R R E R i h ( R f i i i u r r r i u u i s f u r u q 0 r u u u i i i f h E [ [ ",
"[ ` :.8.6.R z R R j f h h E } u.E.T.p.q.q.a.u.:.` R ` :.` E h T E R j f f E R h h T W R j R E ] ] R h f f s f h f p i i p s j E ",
"t t t s G ' 4.8.7.4.:.2.E p j E ` ] } } [ ] ] ] 6.q.} } ' } } a.T.E..X.X.X Xa.a.T.a.q.8.6.q.p.u.p.a.T.a.u.u.p.p.8.[ E E E ( T ` ",
"i i i s G g j s p R ) 4.q.} R z E E } 6.} [ ` 4.>.$.H d G G H ! R G G E R R E E ( ( ` ` ` ] ] ` ` ] ( [ 2.2.2.q.a.E.XXoX}.6.` E ",
"2.2.:.} ] ( R g i u u d J ' ..D D D D D V V V N N Z Z N N Z C C C C S S F U Y U O.O.O.U U o.o.O.j.j.j.O.e.8.2.} [ ` } 7.6.^ i i ",
"2.2.8.q.q.q.q.q.q.] h @ X                                                                               F u..X.X.XXXXXR.p.q.:.R ",
"7.:.:.[ 6.q.q.q.q.p.+ 3 d.4 d.4 d.d.d.d.d.d.d.d.d.d.d.d.d.d.d.d.d.d.d.d.d.d.d.d.d.d.d.d.d.d.d.d.d.f.f.O , H E 2.8.p.E.T.p.} [ 0.",
"q.p.U.p.:.} 2.2.6.2.o -X5X5X5X5X5X5X5X5X5X5X5X5X5X5X5X5X5X5X5X5X5X5X5X5X5X5X5X5X5X5X5X5X5X5X5X5X5X5X5X% , 4.L n H R :.a.E.a.p.e.",
"} 6.q.q.2.3.q.6.6.4.o $X5X5X5X5X5X5X5X5X5X5X5X5X5X5X5X5X5X5X5X5X5X5X5X5X5X5X5X5X5X5X5X5X5X5X5X5X5X5X5X% 8 R.U.0.%.! n L &.&._ a.",
"7.6.} } 6.:.[ 2.p.w.o $X5X5X5X5X5X5X5X5X5X5X5X5X5X5X5X5X5X5X5X5X5X5X5X5X5X5X5X5X5X5X5X5X5X5X5X5X5X5X5X% 6 T.p.R.R.U.0.' ! _ 4.a.",
"' } :.6.[ E R f h E o $X5X5X5X5X5X5X5X5X5X5X5X5X5X5X5X5X5X5X5X5X5X5X5X5X5X5X5X5X5X5X5X5X5X5X5X5X5X5X5X% < [ q.a.q.i.p.q.u.p.q.4.",
"4.6.6.2.q.:.` ` E h o $X5X5X5X5X5X5X5X5X5X5X5X5X5X5X5X5X5X5X5X5X5X5X5X5X5X5X5X5X5X5X5X5X5X5X5X5X5X5X5X% < f j E } 7.q.8.p.U.7.7.",
"4.4.} ` [ ] } R ( Q o $X5X5X5X5X5X5X5X5X5X5X5X5X5X5X5X5X5X5X5X5X5X5X5X5X5X5X5X5X5X5X5X5X5X5X5X5X5X5X5X% , } ` ( ` [ } } } [ } ` ",
"[ } ` E ` ] 7.6.{ ` & $X5X5X5X5X5X5X5X5X5X5X5X5X5X5X5X5X5X5X5X5X5X5X5X5X5X5X5X5X5X5X5X5X5X5X5X5X5X5X5X% 8 !.a.q.4.2.2.] j s s j ",
"R R E E E ` E ] 2.u. .$X5X5X5X5X5X5X5X5X5X5X5X5X5X5X5X5X5X5X5X5X5X5X5X5X5X5X5X5X5X5X5X5X5X5X5X5X5X5X5X% 8 +X~.R.R.a.a.a.:.j 0 r ",
"q.a.a.u.2.3.:.( T Q } $X5X5X5X5X5X5X5X5X5X5X5X5X5X5X5X5X5X5X5X5X5X5X5X5X5X5X5X5X5X5X5X5X5X5X5X5X5X5X5X% 8 +XQ.E.E.a.q.U..XE.2.f ",
"a.U.q.8.q.8.} 3.u.6.} $X5X5X5X5X5X5X5X5X5X5X5X5X5X5X5X5X5X5X5X5X5X5X5X5X5X5X5X5X5X5X5X5X5X5X5X5X5X5X5X% > z.,.] q.p.q.2.q.a.|.U.",
"i.p.p.8.u.w.q.7.8.6.6.$X5X5X5X5X5X5X5X5X5X5X5X5X5X5X5X5X5X5X5X5X5X5X5X5X5X5X5X5X5X5X5X5X5X5X5X5X5X5X5X% > l.X.9 0 r s ] } :.U.E.",
"q.p.p.U.U.a.a.p.a.8.6.$X5X5X5X5X5X5X5X5X5X5X5X5X5X5X5X5X5X5X5X5X5X5X5X5X5X5X5X5X5X5X5X5X5X5X5X5X5X5X5X# 7 W.H.6.:.R u 0 s R :.q.",
"7.p.q.6.6.a.w.w.[.H.  $X5X5X5X5X5X5X5X5X5X5X5X5X5X5X5X5X5X5X5X5X5X5X5X5X5X5X5X5X5X5X5X5X5X5X5X5X5X5X5X# B W.J.U.U.w.i.4.>.4.0.0.",
"7.q.q.u.[ :.q.U.@XF.  $X5X5X5X5X5X5X5X5X5X5X5X5X5X5X5X5X5X5X5X5X5X5X5X5X5X5X5X5X5X5X5X5X5X5X5X5X5X5X5X% A +XQ.w.e.4.9.e.w.r.a.a.",
"[ 2.a.q.8.q.i.a.+XG.  $X5X5X5X5X5X5X5X5X5X5X5X5X5X5X5X5X5X5X5X5X5X5X5X5X5X5X5X5X5X5X5X5X5X5X5X5X5X5X5X# 7 (.k._ %.%.&.9.U.U.a.a.",
"R R p.7.[ 2.p.U.].(.  $X5X5X5X5X5X5X5X5X5X5X5X5X5X5X5X5X5X5X5X5X5X5X5X5X5X5X5X5X5X5X5X5X5X5X5X5X5X5X5X# < x.=.>.T.R.E.q.q.w.` h ",
"6.a.p.a.u.8.8.8.Y.D.  $X5X5X5X5X5X5X5X5X5X5X5X5X5X5X5X5X5X5X5X5X5X5X5X5X5X5X5X5X5X5X5X5X5X5X5X5X5X5X5X# V ].~.E.E.U.a.a.R.p.4.7.",
"n G d H E E ] } } F.  $X5X5X5X5X5X5X5X5X5X5X5X5X5X5X5X5X5X5X5X5X5X5X5X5X5X5X5X5X5X5X5X5X5X5X5X5X5X5X5X# A @XOXE.U.a.E..X}.E.E.R.",
"E ` E H G G G d d x.  $X5X5X5X5X5X5X5X5X5X5X5X5X5X5X5X5X5X5X5X5X5X5X5X5X5X5X5X5X5X5X5X5X5X5X5X5X5X5X5X# 7 ].Z.2.q.e.9.>.4.R.E.E.",
"} 2.q.8.} 5.u.8.} x.  $X5X5X5X5X5X5X5X5X5X5X5X5X5X5X5X5X5X5X5X5X5X5X5X5X5X5X5X5X5X5X5X5X5X5X5X5X5X5X5X# > ^.+.h s E 8.q.P q.E.U.",
":.:.:.8.:.5.q.} 3.^.  $X5X5X5X5X5X5X5X5X5X5X5X5X5X5X5X5X5X5X5X5X5X5X5X5X5X5X5X5X5X5X5X5X5X5X5X5X5X5X5X# > `.B.E 0 r 7.q.R.2.[ q.",
"4.7.p.u.q.q.q.6.6.F.  $X5X5X5X5X5X5X5X5X5X5X5X5X5X5X5X5X5X5X5X5X5X5X5X5X5X5X5X5X5X5X5X5X5X5X5X5X5X5X5X# ; =XB.q q p ` q 2.E.i.p.",
"q.a.p.p.a.q.q.q.Y.G.  $X5X5X5X5X5X5X5X5X5X5X5X5X5X5X5X5X5X5X5X5X5X5X5X5X5X5X5X5X5X5X5X5X5X5X5X5X5X5X5X# : >X;.h f 9 q q 0 f ` E ",
"q.p.q.p.p.a.U.a.].G.  $X5X5X5X5X5X5X5X5X5X5X5X5X5X5X5X5X5X5X5X5X5X5X5X5X5X5X5X5X5X5X5X5X5X5X5X5X5X5X5X# - 1XJ.R ( ( g h R j s r ",
"} 2.8.p.p.q.u.a.+X/.  $X5X5X5X5X5X5X5X5X5X5X5X5X5X5X5X5X5X5X5X5X5X5X5X5X5X5X5X5X5X5X5X5X5X5X5X5X5X5X5X# - 1XK.:.} ] [ q.q.q.[ s ",
"' ) 3.7.8.6.7.p.OX).  $X5X5X5X5X5X5X5X5X5X4X4X5X4X4X4X4X5X5X5X4X5X5X4X4X5X5X5X4X5X5X5X5X5X5X5X5X5X5X5X# = 2Xl.i h T E ` E [ q.6.",
"i.q.q.6.q.q.q.u.Q./.  $X5X5X5X5X5X5X5X5X4X4X4X5X5X5X5X5X5X5X5X5X5X5X5X5X5X5X5X5X4X4X4X5X5X5X5X5X5X5X5X# = ,XL.[ } } 2.2.} [ ( E ",
"' ] } } } 5.8.8.e.x.  $X5X5X5X5X5X5X5X5X5X5X5X5X4X4X4X4X4X4X4X4X4X4X4X4X4X4X4X4X4X4X4X5X5X5X5X5X5X5X5X# * <X[.a.a.p.i.i.q.7.6.q.",
"! _ ' [ ' ` { 3.8.z.  $X5X5X5X5X5X5X5X5X5X5X5X5X5X5X5X5X5X5X5X5X5X5X5X5X5X5X5X5X5X5X5X5X5X5X5X5X5X5X5X$ = <X!.7.q.q.q.a.u.8.q.a.",
"i i f f E ! _ _ %.l.  &X5X4X5X4X5X5X5X5X5X5X5X5X5X5X5X5X5X5X5X5X5X5X5X5X5X5X5X5X5X5X5X5X5X5X5X5X5X5X5X$ * <X[.a.a.T.E.R.a.q.q.7.",
"3.} ( Q W W W T ` l.  -X5X5X5X5X5X5X5X5X5X5X5X5X5X5X5X5X5X5X5X5X5X5X5X5X5X5X5X5X5X5X5X5X5X5X5X5X5X5X5X# = :XZ.3.7.2.2.3.[ ` j j ",
"U.T.p.q.6.} } } 8.S.  2 d.d.4 4 d.d.d.d.d.d.d.d.d.d.d.d.d.d.d.d.d.d.d.d.d.d.d.d.4 d.d.d.d.d.d.d.d.d.d.O = :XY.6.4.7.6.6.6.2.4.3.",
"7.q.a.a.a.a.p.u.8.P.                                                                                    1 >X~.U.a.p.q.7.6.2.[ [ ",
":.2.q.U.T.E.E.R.R.Q.g.1 2 2 2 2 2 2 2 2 2 2 2 2 2 2 2 2 1 2 2 2 5 2 2 2 2 2 2 2 2 2 2 2 2 2 2 2 2 2 2 2 m.].e.4.4.:.[ E R E R j ",
"7.u.q.q.p.u.8.8.5.L.).&X-X-X-X-X-X-X-X-X-X-X-X-X-X&X-X;X-X$X-X-X$X-X;X-X-X-X-X-X-X-X-X-X-X-X-X-X&X;X-X$X*XL.^ ` ] [ [ ] ` f i h ",
"2.q.p.u.p.u.q.U.R.].`.$X$XM.$XM.$X$X$X$X$X$X$X$XM.$X$X$XM.$X&Xh.m.$XM.m.$XM.$X$X$X$X$X$X$X$X$X$X$X$X$XM.*XQ.u.8.4.} ` ^ ^ h r u ",
"( } 2.5.q.a.U.a.U.'.m.$X$X$X&X$X$X$X$X$X$X$X$X$X$X&X$X$X&X&X1 . 5 &X&X$X$X$X&X$X$X$X$X$X$X$X$X$X$X$X$X$XD.e.:.:.6.6.4.] ` :.3.( ",
"a.p.3.6.6.5.3.} { J.$X&X$X$X$X$X$X$X$X$X$X$X$X$X$X$X&X$X$X$X.   5 ;X$X$X&X$X$X$X$X$X$X$X$X$X$X$X$X$X&X$XD.4.q.a.u.u.q.7.q.q.6.3.",
"q.2.a.U.T.T.a.q.U.Q.$X$X$X$X$X&X&X$X$X$X&X&X$X&X&X$X$X$X$X-X%   * &X$X$X$X$X&X$X&X$X&X&X$X$X$X$X&X$X$X$XZ.8.q.4.6.8.6.8.p.q.q.:.",
"q.U.E.R.R.T.U.q.a.T.$X&X&X&X$X$X&X&X&X&X&X&X&X&X$X&X&X-X$X-Xc.- c.-X$X&X&X&X&X&X&X&X&X&X&X&X&X&X$X$X-X%XY.a.p.q.w.a.p.p.a.R.q.2.",
"a.U.a.q.U.a.u.a.<.<.(.&X&X&X$X&X&X&X&X&X&X&X&X&X-X$X-X$X-X&X&X3X-X-X-X&X$X&X&X&X&X&X&X&X&X&X&X%X`./.L.C.u.p.p.q.q.q.4.6.8.} T R ",
"E.p.U.6.3.q.6.8.a.p.8.u._._._._._._._._._._.%X&X&X-X&XM.&X$X$X$X$X$X$X$X-X&X-X&X&X&X&X&X%X`.S.=.X.~ G h h j j s f f s i r 0 i f ",
"} p.a.q.q.u.U.p.u.a.a.s.R.a.8.6.p.u.u.u.u.t.T..X#X<X&Xh.f.f.f.f.f.f.f.h.7X5X5X7X3X,X=X).k.! } a.p.q.6.8.3.[ 2.} 3.6.q.p.u.7.[ R ",
"` T ` 6.a.T..XE.R.E.T.a.T.s.T.XXXXXX X X X Xs.a.q.J.=Xc.v.n.n.n.b.n.n.b.5X6X1X{.z. .R ` ] ` z h T f p s i u r q q u u p h T E ` ",
"s ` R h E [ 8.p.u.p.R.a.u.u.p.8.5.{ { 3.} W v / c c ^.v.n.n.n.n.n.n.b.n.3X,X,.[ } E i 9 q R 2.q.3.R s r r q 0 0 q r r 0 0 0 0 q ",
"} T E R h h h f f u r u u 0 0 0 i i a k k k k c / 3.W.m.$XM.m.M.M.m.m.$X=XI.E E R R ` [ f 0 0 p ] q.q.q.6.:.} [ ` R j j u 0 0 0 ",
"U.a.8.:.` W W W W W x h l x x l l k k c / | 1.5.a.U.U.(.;X;X;X;X;X3X;X&X`. .h G s i i s j R h i 9 0 q p h T R R E R h s f j E j ",
"7.q.2.} 6.q.8.} ( W W W W x / / / { t.a.a.a.a.a.p.q.A.N.n.n.m.n.n.m.n.b./.! f i j h i q 0 q s h s u 0 0 0 0 0 0 0 0 0 0 0 p j j ",
"j ` q.q.:.4.p.U.U.a.u.8.5.8.u.U.u.u.8.6.8.p.a.p.8.{ j.v.b.c.v.c.v.b.c.v.b.&.E h j E z j s r 0 r u u r 0 0 0 0 q u s T W W ` R j ",
"} R h ] q.p.a.w.q.r.p.p.a.a.u.q.p.u.8.u.p.8.6.3.3.:.B.n.n.n.b.n.n.n.n.b.b.Z.p.q.q.u.} ^ E R j i u r 0 0 0 0 0 0 0 r h j h j R E ",
">.q.7.} ( ( } 3.} } 8.7.6.4.2.7.5.} { { { } 6.3.<.:.,.S.v.v.v.v.v.c.b.v.n.B.q.7.7.2.7.p.7.:.[ ` j i 0 0 0 0 0 r u u 0 q 0 0 q r ",
":.9.9.4.4.6.3.} } { W l z x z x W ( } 8.6.6.8.6.p.a.p.H.J.Z.L.L.W.(._.'.'.w.u.8.i.q.2.q.a.q.q.q.7.} E h u q q q u r q q 0 0 0 q ",
"7.4.p.p.q.q.4.4.2.2.2.6.p.u.q.U.R.a.a.u.<.8.a.a.p.p.8.q.q.4.6.q.} 3.2.2.2.8.} :.:.8.a.U.;.#.#. .I  .@.@. .P m b y e e w e y m K ",
"` ] [ 2.8.u.a.q.q.p.8.8.6.q.p.p.8.6.q.8.5.2.p.u.6.q.q.6.q.a.6.2.2.2.2.:.} ] 2.2.` :.} >. .*.*.#.-.I P K K P K I #.#.#.#.....*.*.",
"E ` R R R R ( 2.3.2.q.a.p.p.p.q.q.8.6.u.u.p.u.2.3.8.q.q.q.i.q.8.q.q.7.4.4.q.q.q.6.2.` ) m I I k.{.D.#.P.P.A.S.S.P.S.S.P. .I I I ",
":.4.4.w.w.6.:.:.3.] ] } 2.6.6.6.p.a.a.q.q.q.4.} 2.6.6.q.q.8.a.a.q.a.p.q.4.q.p.a.a.q.7.7.I .. .k.(.V...P.A.k.k.k.A.-.-.V...I K I ",
"i s j G E ` ! G E ` [ $.[ :.4.4.2.} ] W R E E R R E E ` } 8.6.2.2.2.2.:.2.6.q.8.2.' } :.K M M b M K  .-.*.-.I K K I I K I K P M "
};
