/* XPM */
static char *_7c9221bc3424e9efd9dbac1f33c0444OakV2HhounVq18dB[] = {
/* columns rows colors chars-per-pixel */
"64 64 182 2 ",
"   c #168787",
".  c #1C8B8B",
"X  c #2F8286",
"o  c #218D8E",
"O  c #34868A",
"+  c #37888D",
"@  c #238E91",
"#  c #2B8D92",
"$  c #328C94",
"%  c #3E8B93",
"&  c #3C8D98",
"*  c #269293",
"=  c #2A9395",
"-  c #259995",
";  c #2A9996",
":  c #2E9599",
">  c #239D99",
",  c #2C9B9B",
"<  c #309397",
"1  c #32969A",
"2  c #3C959E",
"3  c #349A9D",
"4  c #399A9E",
"5  c #28A19F",
"6  c #369DA0",
"7  c #3C9DA3",
"8  c #2DA4A2",
"9  c #34A3A3",
"0  c #3DA2A5",
"q  c #3CA5A8",
"w  c #35A9A9",
"e  c #3DAAAB",
"r  c #458F96",
"t  c #488E96",
"y  c #408F9A",
"u  c #43939D",
"i  c #4B929A",
"p  c #53959D",
"a  c #4596A1",
"s  c #429DA5",
"d  c #4B9AA5",
"f  c #4E9DA9",
"g  c #5796A0",
"h  c #5997A2",
"j  c #579AA4",
"k  c #5D9BA5",
"l  c #539DAA",
"z  c #589FAC",
"x  c #649EAA",
"c  c #41A1A7",
"v  c #44A3AA",
"b  c #4AA5AD",
"n  c #44AAAE",
"m  c #4AA9AE",
"M  c #54A3AE",
"N  c #59A2AE",
"B  c #4DA7B0",
"V  c #44AEB1",
"C  c #4DAAB1",
"Z  c #53A5B1",
"A  c #5AA5B2",
"S  c #53ABB5",
"D  c #5AABB6",
"F  c #57AEB8",
"G  c #5AAEB9",
"H  c #46B0B2",
"J  c #4CB1B5",
"K  c #4FB3B8",
"L  c #53B0B7",
"P  c #55B3BA",
"I  c #5DB2BC",
"U  c #59B8BE",
"Y  c #65A1AD",
"T  c #69A1AD",
"R  c #65A4B2",
"E  c #6DA4B2",
"W  c #63A9B6",
"Q  c #62ACBA",
"!  c #68AEBC",
"~  c #71A6B3",
"^  c #7BACB7",
"/  c #71AAB8",
"(  c #7BACB9",
")  c #62B4BF",
"_  c #61B4BF",
"`  c #61B3BE",
"'  c #68B0BF",
"]  c #69B0BE",
"[  c #7FB0BA",
"{  c #5FB6C0",
"}  c #5EB9C1",
"|  c #62B4C0",
" . c #64B6C1",
".. c #65B6C2",
"X. c #67B7C3",
"o. c #65B5C0",
"O. c #66B7C4",
"+. c #65B5C1",
"@. c #69B3C1",
"#. c #6BB4C3",
"$. c #68B7C4",
"%. c #6CB6C5",
"&. c #6AB6C4",
"*. c #65BAC4",
"=. c #68B9C4",
"-. c #69BBC7",
";. c #6BBAC7",
":. c #6AB9C5",
">. c #6DB9C7",
",. c #6CBAC7",
"<. c #6BB9C6",
"1. c #6FBBC9",
"2. c #6DBBC8",
"3. c #6CBCC9",
"4. c #6EBCC9",
"5. c #6FBDCA",
"6. c #6DBCC9",
"7. c #71B6C6",
"8. c #72B8C7",
"9. c #72B7C8",
"0. c #71BDCB",
"q. c #72BDCC",
"w. c #73BFCC",
"e. c #71BECC",
"r. c #74BDCC",
"t. c #74BECD",
"y. c #73BDCC",
"u. c #79BECE",
"i. c #7BBFD0",
"p. c #6FC1CC",
"a. c #75C0CE",
"s. c #77C1CF",
"d. c #75C0CE",
"f. c #78C0CF",
"g. c #75C1D0",
"h. c #77C2D0",
"j. c #76C2D0",
"k. c #79C1D0",
"l. c #79C3D2",
"z. c #7CC3D3",
"x. c #7AC4D3",
"c. c #7CC4D3",
"v. c #7CC5D4",
"b. c #7EC5D5",
"n. c #7BC3D2",
"m. c #7FC8D7",
"M. c #7FC9D9",
"N. c #85B3BC",
"B. c #88B5BF",
"V. c #8CB7C0",
"C. c #8DB9C2",
"Z. c #94BCC4",
"A. c #99BFC9",
"S. c #9BC1CA",
"D. c #81C6D6",
"F. c #80C8D7",
"G. c #83C7D8",
"H. c #84C7D8",
"J. c #83C9D9",
"K. c #83CADB",
"L. c #81C8D8",
"P. c #84CADB",
"I. c #87CCDD",
"U. c #85C9DA",
"Y. c #89CCDD",
"T. c #8BCCDD",
"R. c #89CDDE",
"E. c #8ACBDD",
"W. c #A3C6CE",
"Q. c #B8D3D8",
"!. c #8CCFE1",
"~. c #8ECEE1",
"^. c #90CFE1",
"/. c #8DD0E3",
"(. c #8BD1E2",
"). c #90D1E4",
"_. c #91D2E5",
"`. c #92D1E4",
"'. c #96D4E8",
"]. c #96D4E8",
"[. c #9BD7EC",
"{. c #98D4E9",
/* pixels */
"v 6 3 3 : 1 6 1 3 6 1 * 1 6 v b S I G S C B F I F v v b v = 6 C v 3 = = = * @ @ @ = * * = 1 3 * @ * o . @ * * * = = ; 3 6 b G G ",
"G S ` 5.=.v 0 v v 7 3 6 6 b I a.T.G.k.q.t.z.a.` S v S ` S b 6 c b b 7 3 3 b v 6 6 c v v 7 v b F F v 6 3 3 1 3 6 3 : = = : 1 7 b ",
"$ $ $ < a D %.1.>.$._ X.b : 7 b S F I I G F F F =.q.I I D I I c.L.T.`.`.`./.b.b.L.b.q.5.=.q.h.a.k.c.L.b.a.a.k.h.5.G b b b C c S ",
"= = = 1 s 4 7 1 : v Z $.q.I v 0 b b I =.I G S @.' Q d 2 a s d M b s s b v v b b C C S S S F F S S F C G X.X.O.q.b.T.].[.~.=.S b ",
"X.X.` I F C v 3 * * * 2 f D ` S m S F b 4 2 2 # # 1 3 1 < 4 s s v v G I _ q.b.a.k.b.t. .` 1.5.h.J.I.L.k.5.1.X.I G S I >.=.B = = ",
"X.X.1.q.t.t.t.q.q.F 6 ; * 4 M b 4 4 < # o = 3 0 F I _ a.k.D.Y.Y.J.Y.T.J.D.D.z.t.$.G ) M f N N l N ! 7.0.0.a.`.'.`.].].J.k.q.I v ",
">.` ` G =.q.q.q.q.k.a. .S v 0 c 4 3 6 v v S ` =.a.5.>.1.t.D.J.b.G.~.T.~.J.J.J.T.T.I.Y.Y.D.I.H.u.7.W l d d d b X.1.k.T.L.k.I G >.",
"q.k.D.k.` I X.X.=.X.5.k.b.z.5.X.=. .X.=.1.D.J.b.D.J.D.a.q.b.z.D.J.H.J.T.J.J.z.k.z.k.a.q.1.1.=.k.T.T.J.D.u.#.z u s v ` b.T.b.h.r.",
"I =.q.t.X. .0.=.=.$.>.=.q.a.t.=.q.k.k.D.J.Y.J.I.Y.c.5.q.t.>.>.5.1.1.=.1.t.1.X.X. .I G X.=. .F $.k.D.H.J.H.J.H.8.! N u z W W A z.",
">.=.I I =._ G X.k.u.>.1.k.q.a.b.z.t.J.J.D.c.a.,._ S v c v b c v S S S F G I  .1.` S I $.>.X.G S v C I t.z.H.z.J.J.D.8.D N A %.b.",
"D I ` =.G b v 3 6 b C S F _ I _ O.O.I F S S F v 6 c C I O._ ` X.1.=.=.=.X.` ` ` $.X.=.` q.1.I F 6 1 v b b G 0.z.q.a.k.q.a.k.q.X.",
"$.=.=.X.q.I S S b 6 , * ; 3 9 ; * - , 0 v v c 0 b S b S G X.I I  .| =.1.k.=.1.z.b.z.J.D.G.b.t.$.G S D C 7 3 7 b I =.q.1.k.D.>.>.",
"$.$.I S G F I v C m 0 0 , * - ; ; ; 3 6 0 v m S O.a.1.=.>.q.a.1.1.q.q.z.z.b.G.~.~.`.`.`.~.T.T.G.k.D.k.>.$.I S C S G I I I G I S ",
"G I S b S F >.=.P S v v v 0 , - ; - * - , 3 0 C F m S X.>.$.=.>.X.=.z.z.L.T.T.T.~.Y.D.k.a.t.k.J.T.Y.k.q.k.a.t.q.$.X.X.F 7 1 1 7 ",
"v v b b b S b F X.a.h.=.F m 0 3 3 3 9 9 c I 5.=.O. . .` I C b S _ k.J.Y.T.T.T.J.t.$.$.t.q.X.S F X.z.H.I.H.J.I.J.J.b.b.z.` 7 . @ ",
"r.z.z.a.X. ._ C c m I 5.O.I I a.q.q.5.I I  .S I _ I ` X.=.q.b.I.~.~.T.T.J.G.H.D.k.a.1.X.t.H.q.v o c I =.D.D.G.I.T.D.t.D.'.T.X.3 ",
"z.D.t.5.t.5.I  .a.=.I I P S S L m C C I  .5.a.5.I I a.k.z.J.T.I.I.Y.Y.Y.I.J.J.k.t.t.k.t.q.k.k.b.S @ . @ = 1 v F q.k.q.X.q.z.^.D.",
"f.k.k.1.a.u.q.>.1.=.-.=.=. .O. . .I O.a.a._ L  .t.k.D.J.J.J.I.T.T.T.T.T.J.k.f.z.J.H.k.Y.J.I.J.k.D.k.b 1 @ * @   . @ 1 F I ` D.I.",
"q.k.k.D.D.b.b.h.a.3.=.O.=.=.,.a.l.-._ I O.q.=.a.z.b.b.J.z.D.I.T.T.I.J.D.k.z.Y.Y.T.D.q.q.t.k.D.H.D.J.T.z.) $.X.=.` v * . 1 v ` 0.",
">.k.t.=.=.z.u.q.a.h.k.b.q. . .=.-.a.O.*.q.a.J.D.D.b.b.H.D.D.t.t.z.D.J.J.I.J.D.k.1.$._ I q.k.I.Y.G.z.b.t.u.8.7.D.D.u.f.$.) #.8.8.",
">.q.t.a.G _ t.k.r.1.X.=.k.5.-.q.5.l.k.b.D.k.I.J.D.H.H.D.D.D.k.k.k.D.D.z.a.a.1.X.` =. .X.t.t.t.b.D.k.J.k.I.Y.D.u.r.#.7.r.u.i.z.z.",
"G X.z.1.5.q.f.a.b.k.$.$.$.1.a.a.a.a.5.-.3.5.-. .=.5.t.k.J.H.D.D.D.L.G.Y.T.T.Y.D.k.q.$.1.q.=.q.=.%.Z M z W A l A ! ! W 9.D.H.b.z.",
"v v k.=.G X.k.D.b.b.O.P =.1.k.D.D.J.L.a.X._ G I ) G Q ) $.$.) >.0.$.@.I ` S G ` F S S v S Z Z d u $ $ y & % u ) H.J.Y.t.t.u.S 6 ",
"=.b.k.b.a.5.5.5.=.=.t.q. .3.h.k.b.D.J.D.z.0.0.u.1.` @.G A D D W ! Q A A A A A N f f d d f l N W @.0.D.b.k.u.H.T.T.D.z.z.J.k.$.>.",
"u a 2 s b b F I I 3.5.b.J.D.J.5.3.5.=.>.t.t.$. .q.q.t.t.0.0.0.0.8.%.0.7.7.$.%.$.@.#.t.r.0.D.T.`.`.^.`.`.'.'.'.T.D.z.I.`.~.T.T.J.",
"b S b s a a a 2 4 s G X.x.b.D.J.b.l.k.h.a.q.a.k.k.k.b.D.J.D.H.D.b.b.k.t.b.b.z.k.c.J.T.T.Y.~.`.~.J.J.a. .X.=.I X.0.r.7.' #.J.T.T.",
"I X.q.5.I O.a.1.I S b s b I =.a.J.T.Y.J.b.h.k.J.I.J.J.b.D.b.z.D.b.J.Y.Y.~.~.~.T.T.Y.T.`.`.`.T.T.J.t.S 7 = 3 : 6 1 b 5.0.l t.Y.D.",
"_ ` ` 1._ =.q.I  .h.b.D.t.D D Z S $.t.z.k.k.z.T.'.`.`.^.^.`.'.{.].'.~.I.D.u.u.D.~.`.Y.G.k.k.t.t.1.G 3 * * * F b . @ >.t.J.X.G 0.",
"$.=.k.a.t.t.q.-.3.5.h.h.b.b.l.q.5.5.b.J.I.Y.J.J.T.T.T.T.Y.H.u.u.u.u.u.D.H.H.J.J.J.z.1.F S I I I X.1.D._ . 1 S o o : S o X.Y.f.k.",
"r.c.k.h.b.t.0.t.q.t.a.h.a.a.a.a.a.p.a.D.J.J.Y.J.J.J.J.J.T.Y.~.`.~.T.~.Y.D.f.t.t.0. .=.F b s v b b b v k.X.G 7 6 3   o o . 3 S b ",
"q.k.q.k.h.b.D.b.i.r.t.z.k.k.b.k.b.J.I.J.I.Y.I.I.J.J.D.b.I.J.J.J.D.D.I.D.t.q.q.I C v 6 6 v S B I ` F I $.k.q.X.v C C 4 6 v 7 1 @ ",
"I X.5.k.h.t.a.b.l.x.b.l.D.b.b.L.L.L.b.k.b.D.D.D.H.D.D.D.b.z.z.k.z.b.k. .G ` G b b b c = o * 1 1 b S S X.` S G ` I F G q.t.q.G 1 ",
"D Z @.>.1.=.3.h.b.b.k.b.b.L.L.l.l.l.a.a.l.m.J.T.L.h.l.k.k.k.1.X.` F b 7 s b c 7 v 7 7 s 1 * * o . * * o * * * = 6 c b S b G q.=.",
"a.t.q.=.t.q.q.a.l.l.h.k.l.b.k.k.l.x.l.p.*.=.I  .=. .X.I X.I X.t.b.q.=.I =.t.1.>.X.I X.q.I v v c F G b C S S G G I I X.X.I G C b ",
"D F I I I =.5.5.I } } U P P H K P  .*.*.3.F.b.q.=.=.f.k.b.D.k.t.X.S v v v b B S B v b v v s c v b S X.>.>.t.k.c.b.k.f.f.t.>.=.t.",
"M A D G D S P { } P K V U } P } U K H J H H P 5.5.=.5.q.q.F s 7 v v G =.q.1.>.1.=.5.q.1.t.a.a.G.D.b.z.D.k.k.q.>.q.q.t.z.a.1.t.z.",
"= = 3 3 b N A A D F I _ I K J U } U K n n e 9 9 9 9 6 3 1 1 c 7 B X.t.=.X.=.1.q.k.b.t.q.k.z.>.=.1.q.q.k.b.D.D.z.b.G.I.J.z.q.q.>.",
" .I C m v v v 0 V P V K *.*.-.*.3.*.U P J 9 5 8 > - - , 6 6 6 b 1.1.t.D.k.k.t.>.q.q.q.X.` X.X.` G S F $.>.1.`  .>.X.X. .G S 7 7 ",
"D.G.k.t.=.I I I -.3.5.l.L.D.l.h.l.b.a.} J J e 8 , , - , 6 b X.1.X.q.z.c.k.k.f.f.z.z.z.f.q.a.z.q.X.>.1.t.q.=.>.=.$.>.=.=.=.X.$. .",
">.t.b.b.z.b.k.a.3.l.D.b.D.b.l.h.h.l.b.J.p.P V 9 > > 6 C  .q.q.q.c.H.G.z.D.H.J.J.J.J.H.D.J.D.D.D.k.t.z.D.D.J.J.D.z.k.t.>.=.X.G G ",
"_ X.q.D.G.Y.Y.J.J.J.J.Y.J.D.l.h.b.k.k.b.J.L.a. .L n C I 5.t.D.Y.T.T.Y.I.J.Y.T.I.J.J.D.k.f.D.J.b.J.D.b.k.q.1.O.$.$.` G b v b v 7 ",
">.a.q.t.k.a.5.5. . .3.5.5.a.3.*.l.L.l.k.k.D.J.I.I.J.b.J.J.I.I.D.D.k.t.t.1.$.a.k.b.z.t.t.q.1.X.| I S b C C C B S S G G F S 3 = 6 ",
"X.q.k.a.k.a.q.D.J.b.F.J.L.b.J.b.h.J.T././.T.T.L.D.b.k.k.b.J.J.G.H.D.I.D.b.z.z.a.1.1.q.X.X.X.I  .q.5.q.t.k.k.a.1.$.I S B B 6 @ * ",
"C I X.=.q.b.D.b.D.k.a.D.l.k.h.h.l.D.D.b.L.J.T.J.L.m.b.D.G.J.c.a.k.D.z.b.Y.D.z.k.k.a.b.z.q.q.a.D.q.X.I G G I ` ` =.=.$.F S `  .C ",
"z.k. .=.=.=. .I P I I I { { I *.p.h.k.z.D.l.k.J.T.Y.Y.Y.J.D.k.a.k.k.D.k.f.z.k.1.k.a.k.f.=.>.q.t.q.>.X.1.$.X.t.z.a.a.q.>.q.q.=. .",
"q.X.z.D.G.H.z.t.D.D.D.H.H.H.H.D.z.k.z.k.h.h.l.k.k.D.J.I.G.H.H.D.z.J.J.J.a.t.a.b.z.k.q.X.0.k.=.X.X.I >.1.$.1.q.$.=.1.=.5.k.t.0.` ",
"t.D.Y.J.D.G.D.q.z.b.a.k.t.u.>.q.5.q.q.h.h.h.x.h.b.D.J.Y.Y.I.D.b.D.q.` >.q.z.k.D.b.k.D.z.k.c.a.1.q.t.q.t.k.b.k.t.u.z.k.k.b.J.q.X.",
"z.D.z.q.D.c.q.l.{ { 3.h.5.h.5.a.a.a.h.p.5.a.l.L.L.J.b.5.=.O.q.>.k.k.q.k.G.J.q. .C C F C v b S I X.G =.t.a.k.k.q.q.q.$.>.1.G c v ",
"I.k.b.=. .q.=.5.b.k.5.q.-.} } } *.*.*.3.*.-.l.h.3.5.p.a.h.k.D.Y.G.J.c.1. .G ` I  .G B I X.` F s ; 1 3 6 6 7 7 1 3 3 1 = @ . = 3 ",
"I k.z.t.t.a.D.h.a.l.k.b.J.l.p.3.h.a.a.a.a.p.L.(.`.!.L.L.k.t.q.X.S b S G ` ` b.q.b B b v v b I k.k.q.=.5. .G X.I  .=.q.k.a.>.G v ",
"S c S =.b.L.`.T.I.T.L.b.L.M.L.].].'.(.(./.(.M.x.q.{ K C S b v c G =.t.q.t.q.B 3 : 1 v S S S 7 3 c 3 : 1 = * @ o o * * : 6 c b S ",
"1 S v 6 b G q.k.a.h.J.b.a.a.h.5.=.P F  .I n e V w w V V C =.5.X. .X.X.=.q._ S G I b =   o v X.q. .v 1 @ @ o . . o @ @ . . . . o ",
"I c b v 6 6 6 3 3 * @ * * . . . - - , 8 8 8 8 w V  .a.q.` I F I G I  .I s 3 b b v v S G 3 . . : F 0.t.q.=.` I G S v 7 7 * . . . ",
"D.b.1._ S v v v v n 0 6 9 q q 9 9 8 8 w H K } *.b.D.t.=. .X.X.F b 7 : * * : 6 s 1 = = 1 7 v 6 =   . o : 6 c v v b v 6 3 6 7 b 7 ",
">.t.X.I =.q.5.I C n n n n q V V V U 5.l.b.b.b.b.k.t. .P b v v 6 3 = 6 v v b 3 = 7 6 = o . o 1 6 1 * . . . . . . . . . . . : 7 7 ",
"7 S t.0.` $.k.D.D.l.a.5.=.5.a.D.a.a.5.-.5.k.z.k.5.P C F C b v S F $.I F F C b 6 7 b 0 7 1 @ . @ * * @ . . . . o * 1 c v v S v 7 ",
"I v 6 F q.k.z.u.t.i.k.k.z.b.a.q.k.a.5.a.k.5.3. . .I =.5.>.1.1.t.k.a.k.t.1.q.k.t.q.a.I B b v 7 = * @ . . . . . . . @ 6 7 6 7 v b ",
") q.>.I C C I  .I I 1.>.=.$.X.>.=.I L L P I -. .{ I I q.>.=.1.X.$.1.| X.=.q.q.>.>.X.>.k.>.` G S 7 = . . . . . @ * * . o . . o @ ",
"` 7.7.$.$.=. .I I P n 9 0 q 0 q n C I 5.-.3.5.=.k.c.h.q.q.X.=.>.q.t.1.1.a.t.a.1.f.q.X.q.z.t.t.t.>.I b 6 * o o o * @ o o . . . o ",
">.$.k.k.0.0.%.%.X.X.X.=.z.a.q.D.J.b.b.q.{ 5.c.z.k.k.5.q.t.$.=.q.I  .X.X.X.1.I ` ` 1.b.D./ E E Y x Y R R Y j i r % O O X + % i k ",
"S F G X.1.a.z.t.q.k.1.1.=.q.h.k.5.=.q.5.=.X.k.a.=.q.q.=.q.b.=.X.X.X.X.` I F X.X.S ` I ) Y ~ ~ E ( x h k h g k x E E E E T T ~ ~ ",
"b S v v v v C X. .X.q.z.k.k.k.q.q.q.3.a.a.k.a.X. .1.q.q.t.f.q.1.t.t.>.$.$.t.t.q.=.X.S Z i x x N.Q.A.E S.S.V.Z.Z.S.Z.Z.S.Y x x x ",
"` $.%.u.u.=.` `  .F F I O.=.=.=.k.l.k.q.q.q.$.I O.=.=.t.t.1.z.z.t.z.k.t.$.q.k.b.z.q.3.>.x T Y N.W.C.T S.V.B.N.N.V.[ ^ C.T x k k ",
"= 1 7 s b S M s b S G Q G ` $.$.X.` F v v b b v v b b S I 5.=.X.X.X. .` X.=.q.1.X.D I ` k p p t p k Y ( ~ ( x k k x x k x k h p "
};
